<?xml version="1.0" encoding="UTF-8" standalone="no"?>
<svg
   version="1.0"
   width="225pt"
   height="225pt"
   viewBox="0 0 225 225"
   preserveAspectRatio="xMidYMid"
   id="svg60"
   sodipodi:docname="piano-mountain-lake-heath-countryside-france-trees.svg"
   inkscape:version="1.3.2 (091e20ef0f, 2023-11-25)"
   inkscape:export-filename="banner-mobile.jpg"
   inkscape:export-xdpi="96"
   inkscape:export-ydpi="96"
   xmlns:inkscape="http://www.inkscape.org/namespaces/inkscape"
   xmlns:sodipodi="http://sodipodi.sourceforge.net/DTD/sodipodi-0.dtd"
   xmlns:xlink="http://www.w3.org/1999/xlink"
   xmlns="http://www.w3.org/2000/svg"
   xmlns:svg="http://www.w3.org/2000/svg">
  <defs
     id="defs60">
    <linearGradient
       id="linearGradient62"
       inkscape:collect="always">
      <stop
         style="stop-color:#fff9e3;stop-opacity:1;"
         offset="0"
         id="stop62" />
      <stop
         style="stop-color:#fff9e3;stop-opacity:0;"
         offset="1"
         id="stop63" />
    </linearGradient>
    <linearGradient
       inkscape:collect="always"
       xlink:href="#linearGradient62"
       id="linearGradient63"
       x1="-18.663626"
       y1="114.96693"
       x2="257.61003"
       y2="114.96693"
       gradientUnits="userSpaceOnUse"
       gradientTransform="matrix(0.81440992,0,0,0.67583535,15.199842,34.801283)" />
  </defs>
  <sodipodi:namedview
     id="namedview60"
     pagecolor="#ffffff"
     bordercolor="#000000"
     borderopacity="0.25"
     inkscape:showpageshadow="2"
     inkscape:pageopacity="0.0"
     inkscape:pagecheckerboard="0"
     inkscape:deskcolor="#d1d1d1"
     inkscape:document-units="pt"
     inkscape:zoom="1.8167949"
     inkscape:cx="276.8612"
     inkscape:cy="103.20373"
     inkscape:window-width="1920"
     inkscape:window-height="1080"
     inkscape:window-x="0"
     inkscape:window-y="0"
     inkscape:window-maximized="0"
     inkscape:current-layer="svg60"
     inkscape:export-bgcolor="#ffffffff" />
  <metadata
     id="metadata1">
Created by potrace 1.16, written by Peter Selinger 2001-2019
</metadata>
  <rect
     style="fill:url(#linearGradient63);stroke:none;stroke-width:1.98448"
     id="rect62"
     width="225"
     height="225"
     x="7.1054274e-15"
     y="7.1054274e-15" />
  <g
     transform="matrix(0.04393673,0,0,-0.04393626,0.04393673,224.95365)"
     fill="#000000"
     stroke="none"
     id="g60">
    <path
       d="m 205,5106 c 141,-34 341,-119 504,-215 29,-18 55,-30 58,-28 14,14 -297,172 -435,221 -40,14 -99,28 -130,31 l -57,5 z"
       id="path1"
       style="fill:#5a4c11;fill-opacity:1" />
    <path
       d="m 550,5108 c 25,-5 91,-18 148,-29 146,-28 444,-133 581,-204 l 46,-24 -105,-3 c -96,-2 -99,-2 -30,-6 105,-5 320,8 320,20 0,12 -62,88 -72,88 -5,0 -8,-6 -8,-14 0,-26 -17,-26 -46,1 -17,15 -30,21 -32,14 -7,-22 -24,-11 -20,13 4,18 -1,27 -18,35 -14,6 -26,7 -29,1 -3,-5 -12,-7 -20,-3 -8,3 -15,0 -15,-6 0,-19 -29,-12 -40,10 -7,11 -10,22 -8,24 2,2 41,9 88,15 83,11 254,50 301,69 19,8 12,10 -36,10 -33,0 -78,-3 -100,-7 -22,-4 -73,-4 -113,0 -51,6 -87,4 -117,-4 -43,-13 -42,-13 41,-13 114,0 132,-19 32,-34 -40,-7 -83,-14 -96,-17 -17,-3 -25,2 -34,21 -14,31 -26,32 -37,3 l -8,-22 -13,24 -12,23 -18,-23 c -15,-20 -20,-22 -34,-11 -13,11 -17,11 -22,-4 -5,-13 -11,-9 -28,21 -22,40 -39,46 -44,17 -7,-41 -9,-42 -64,-27 -116,31 -253,54 -317,53 l -66,-1 z"
       id="path2"
       style="fill:#5a4c11;fill-opacity:1" />
    <path
       d="m 1840,5100 c -73,-24 -43,-24 45,-1 44,12 59,19 40,19 -16,0 -55,-8 -85,-18 z"
       id="path3"
       style="fill:#5a4c11;fill-opacity:1" />
    <path
       d="m 2150,5088 c -164,-57 -381,-89 -625,-90 -174,-1 -177,-1 -85,-10 106,-10 277,-5 388,12 41,7 76,9 79,7 3,-3 2,-20 -2,-38 -4,-19 -10,-27 -15,-20 -4,8 -12,1 -20,-19 -12,-29 -17,-32 -45,-27 -18,3 -37,1 -43,-5 -5,-5 -40,-13 -78,-16 l -69,-8 125,-12 c 135,-13 185,-22 270,-46 30,-9 104,-21 165,-27 179,-17 187,-27 25,-29 l -145,-3 112,-7 c 154,-11 167,-24 54,-56 -25,-7 -39,-13 -31,-13 8,0 38,5 65,13 34,8 74,11 120,6 67,-6 69,-6 30,-14 -22,-4 -47,-9 -55,-11 -8,-1 6,-3 32,-4 30,-1 85,12 150,33 57,19 139,44 183,55 77,19 297,61 319,61 26,-1 -26,-19 -114,-40 -107,-25 -319,-105 -308,-115 2,-3 42,11 89,30 128,52 249,84 383,100 148,19 174,26 78,20 l -74,-4 15,22 c 8,12 30,34 49,50 44,36 150,52 283,43 132,-9 132,-26 0,-27 l -110,-2 100,-8 c 146,-12 186,-19 192,-35 7,-19 -5,-66 -16,-60 -11,7 -28,-13 -33,-39 -3,-15 -9,-9 -25,28 -12,26 -24,47 -28,47 -7,0 -55,-108 -55,-125 0,-6 -51,-30 -113,-53 -109,-40 -121,-42 -283,-51 -93,-5 -229,-8 -302,-6 -84,2 -130,0 -126,-6 8,-14 -16,-69 -30,-69 -10,0 -36,52 -36,73 0,3 10,8 23,10 12,3 7,4 -12,4 -31,-2 -35,-6 -54,-55 -15,-41 -22,-50 -29,-38 -5,8 -15,13 -22,10 -9,-3 -16,6 -21,28 l -8,33 -4,-30 c -6,-38 -20,-54 -29,-31 -6,16 -24,16 -221,10 -210,-7 -214,-7 -243,15 -29,21 -30,21 -30,2 0,-16 -18,-31 -37,-31 -3,0 -18,14 -34,31 -24,26 -32,29 -44,19 -12,-10 -16,-9 -21,4 -9,23 -24,20 -24,-5 0,-15 -5,-19 -15,-15 -8,3 -15,1 -15,-4 0,-11 -141,-12 -179,-1 -46,12 -33,28 31,38 l 63,10 -82,2 c -67,1 -83,4 -83,16 0,17 -9,19 -29,6 -9,-6 -22,-6 -32,-1 -12,7 -22,4 -34,-10 -21,-23 -59,-25 -151,-8 -48,8 -65,16 -70,30 -3,11 -12,17 -19,14 -9,-3 -18,9 -27,36 -7,22 -17,41 -22,41 -4,1 -20,-19 -33,-45 -27,-52 -38,-54 -48,-7 -4,17 -13,33 -21,36 -8,3 -14,18 -14,34 0,35 -17,38 -26,5 -8,-33 -34,-22 -34,13 0,15 -7,52 -16,82 l -17,54 -18,-65 c -10,-36 -18,-75 -19,-87 0,-33 -18,-38 -32,-9 -15,34 -24,33 -37,-5 -9,-27 -13,-30 -26,-19 -8,7 -15,22 -15,35 0,30 -11,38 -26,17 -11,-15 -13,-14 -25,11 -15,34 -27,34 -35,2 -9,-36 -18,-22 -24,38 -6,60 -21,65 -35,10 -5,-21 -12,-40 -16,-43 -3,-3 -10,-16 -14,-29 -11,-34 -25,-7 -25,49 0,27 -4,40 -8,32 -11,-17 -33,8 -59,68 l -20,45 -8,-37 c -4,-21 -12,-38 -17,-38 -6,0 -8,-9 -5,-20 3,-11 1,-20 -4,-20 -5,0 -9,-12 -9,-26 0,-22 -2,-24 -15,-14 -12,10 -16,9 -21,-4 -9,-24 -33,-1 -27,24 4,14 0,20 -11,20 -13,0 -14,5 -6,26 10,25 9,26 -15,20 -20,-5 -23,-3 -18,11 3,10 17,30 31,46 26,27 17,36 -19,17 -10,-6 -19,-18 -20,-28 0,-10 -3,-12 -6,-4 -8,21 -29,13 -42,-15 -10,-22 -14,-24 -22,-12 -5,7 -9,24 -9,36 0,27 -10,53 -20,53 -4,0 -11,-16 -14,-35 -9,-48 -24,-52 -32,-8 -3,21 -12,57 -20,81 -8,23 -14,50 -15,60 -2,46 -28,-50 -29,-105 0,-35 -4,-63 -9,-63 -12,0 -23,29 -15,41 3,6 0,17 -7,25 -9,11 -9,18 -1,26 13,13 15,63 3,93 -7,18 -10,16 -26,-15 -23,-46 -24,-47 -35,-30 -6,10 -10,-42 -10,-143 0,-141 2,-158 17,-163 67,-23 358,-172 350,-180 -2,-2 -30,5 -63,17 -78,27 -230,59 -274,58 -38,-1 -35,-2 83,-25 184,-35 535,-156 570,-196 21,-25 22,-48 2,-48 -20,0 -19,-29 2,-53 18,-20 17,-20 -14,-14 -40,8 -43,-7 -12,-47 l 21,-26 -31,-6 c -46,-9 -37,-45 14,-57 17,-3 15,-6 -12,-17 -38,-14 -41,-32 -13,-60 32,-32 25,-43 -20,-36 -34,5 -40,4 -40,-12 0,-10 5,-23 12,-30 9,-9 3,-12 -29,-12 -23,0 -49,-3 -58,-7 -15,-5 -16,-1 -10,25 6,30 5,32 -22,33 -27,0 -27,1 -6,9 13,5 23,17 23,26 0,13 -6,15 -27,9 l -28,-7 28,29 c 34,37 35,57 2,51 -22,-5 -24,-2 -19,18 4,16 2,24 -6,24 -9,0 -7,7 5,20 18,20 17,20 -15,20 -33,0 -33,0 -15,20 14,15 16,23 7,32 -8,8 -7,15 6,24 16,13 15,14 -6,20 -24,7 -29,23 -12,40 8,8 6,15 -5,24 -8,7 -15,28 -15,49 0,20 -4,42 -9,50 -9,14 -19,-41 -24,-127 -1,-33 -6,-42 -17,-39 -264,72 -260,70 -260,104 0,16 -4,34 -9,42 -9,14 -12,10 -25,-51 -4,-17 -13,-28 -24,-28 -16,-1 -16,-2 -1,-13 24,-18 14,-147 -12,-147 -5,0 -9,-11 -9,-25 0,-14 6,-25 13,-25 8,0 9,-2 1,-8 -8,-5 -12,-62 -13,-169 l -2,-163 h 46 c 112,0 295,-54 408,-121 98,-58 292,-252 335,-335 33,-63 46,-149 18,-111 -7,9 -19,17 -25,17 -7,0 -9,5 -6,11 4,6 -2,20 -12,32 -11,12 -23,31 -27,42 -7,19 -8,19 -21,2 -12,-17 -14,-16 -34,9 -28,35 -35,26 -16,-19 19,-45 19,-47 0,-47 -26,0 -17,-37 16,-64 l 31,-26 h -29 c -59,0 -73,11 -108,79 -36,71 -71,109 -150,161 -27,18 -63,45 -79,59 l -30,26 18,-28 c 13,-21 16,-39 10,-75 -3,-26 -11,-55 -16,-65 -6,-12 -6,-29 1,-48 9,-26 8,-28 -8,-20 -12,7 -22,6 -29,-1 -9,-9 -12,-8 -12,4 0,18 -33,34 -38,19 -5,-16 -29,-13 -36,4 -4,12 -16,15 -46,11 -44,-5 -47,-1 -25,30 12,18 12,26 2,48 -7,14 -20,26 -29,26 -10,0 -18,5 -18,11 0,6 -6,9 -14,6 -8,-3 -16,-1 -19,6 -2,7 -16,12 -30,12 l -27,1 v -126 -125 l 163,3 c 151,3 163,2 165,-15 1,-10 5,-54 8,-98 5,-74 5,-78 -10,-60 -15,20 -15,20 -16,-4 0,-20 -3,-22 -12,-13 -35,35 -37,-4 -3,-77 14,-30 24,-56 21,-58 -9,-9 -47,23 -52,45 -7,26 -22,28 -50,7 -32,-24 -37,-17 -31,37 6,50 -15,128 -34,128 -13,0 -29,-99 -23,-147 l 6,-48 -25,30 -25,30 -7,-27 c -8,-32 31,-108 57,-108 9,0 36,18 59,40 23,22 44,40 46,40 1,0 3,-8 3,-19 0,-25 35,-68 72,-87 21,-11 27,-19 19,-23 -8,-5 -10,-18 -5,-37 l 7,-29 -41,39 c -40,38 -62,41 -62,8 0,-19 -49,-76 -58,-68 -3,4 5,20 18,38 25,33 39,111 22,122 -6,3 -19,-4 -29,-17 -23,-29 -69,-23 -87,12 -9,15 -16,20 -20,12 -4,-6 -23,-11 -42,-11 -24,0 -34,-5 -34,-15 0,-10 10,-15 29,-15 40,0 58,-48 41,-111 -7,-23 -9,-58 -6,-78 6,-33 5,-34 -8,-17 -8,10 -19,15 -25,11 -16,-9 -2,-56 25,-86 13,-14 24,-33 24,-42 0,-15 -5,-14 -38,8 l -37,25 -3,-39 c -2,-22 2,-50 8,-62 9,-17 9,-23 -1,-29 -21,-13 -4,-138 23,-167 23,-25 19,-29 -13,-13 -18,10 -19,7 -19,-67 1,-72 3,-81 30,-113 30,-35 34,-32 30,19 -1,14 2,21 9,17 13,-9 14,-56 1,-76 -10,-16 -12,-14 -48,34 l -22,29 v -92 c 0,-50 3,-91 6,-91 17,0 47,25 64,53 l 20,32 v -82 c 0,-45 4,-85 10,-88 5,-3 21,5 35,19 l 25,25 v -166 c 0,-142 -2,-168 -16,-178 -13,-9 -14,-16 -5,-33 19,-35 12,-47 -13,-22 -32,30 -34,41 -46,264 -5,104 -12,191 -15,194 -3,3 -13,-2 -23,-11 -10,-10 -24,-17 -30,-17 -18,0 -15,-77 3,-84 13,-4 15,-36 15,-202 0,-173 -2,-195 -15,-184 -13,11 -15,1 -15,-76 v -89 l 97,-33 c 53,-18 198,-76 322,-129 293,-124 438,-179 702,-268 207,-70 310,-113 324,-135 9,-15 -36,-12 -155,9 -58,10 -134,21 -170,25 -74,6 -69,4 114,-40 91,-22 127,-37 115,-48 -5,-5 -78,3 -408,48 -145,20 -325,38 -400,41 -75,2 -129,2 -121,0 8,-2 132,-20 275,-40 258,-35 470,-76 489,-95 7,-7 -59,-10 -190,-11 -109,-1 -212,-5 -229,-9 -24,-6 -16,-8 35,-9 216,-4 438,-34 483,-66 20,-14 15,-15 -63,-16 -47,0 -105,-4 -130,-8 -35,-5 -10,-9 120,-18 220,-16 545,-72 687,-118 110,-35 147,-55 101,-55 -13,0 -115,11 -228,25 -115,15 -282,27 -380,30 l -175,4 180,-14 c 219,-17 580,-59 733,-86 115,-20 312,-77 312,-90 0,-10 -167,-1 -310,17 -161,20 -206,16 -80,-7 58,-11 112,-22 120,-25 8,-3 -25,-19 -73,-35 l -88,-30 -167,24 c -92,14 -169,23 -170,22 -3,-3 30,-14 162,-52 30,-8 5,-20 -56,-26 -48,-5 -65,-1 -118,24 -82,38 -98,37 -32,-3 65,-41 69,-61 10,-52 -53,8 -338,99 -392,125 -22,10 -48,19 -59,19 -23,0 -55,16 -84,43 -18,16 -25,18 -37,7 -13,-10 -24,-7 -62,14 -28,16 -55,24 -66,20 -10,-3 -25,-1 -33,6 -7,6 -44,13 -82,16 -37,3 -72,9 -77,15 -18,17 -26,9 -26,-27 0,-49 -18,-40 -46,24 -18,41 -20,52 -8,52 14,0 18,12 15,38 -1,8 5,19 15,26 13,10 14,17 6,32 -6,10 -13,27 -16,37 -5,17 -12,15 -73,-17 -37,-20 -69,-34 -71,-32 -2,3 13,14 35,25 66,35 78,48 63,66 -7,9 -21,13 -31,10 -12,-4 -21,-1 -25,9 -8,22 -19,20 -44,-6 l -20,-22 v 22 c 0,12 -4,22 -10,22 -5,0 -10,-7 -10,-15 0,-8 -7,-15 -16,-15 -11,0 -15,6 -11,17 20,63 20,62 -7,69 -36,9 -58,-11 -54,-50 3,-27 0,-31 -20,-29 -17,2 -22,-2 -22,-22 0,-20 -5,-23 -27,-22 -24,2 -28,-2 -25,-20 4,-27 -19,-31 -38,-8 -10,12 -10,21 -1,41 6,14 8,31 4,37 -4,7 -7,21 -8,32 0,16 -8,21 -42,23 -42,3 -43,4 -43,37 0,27 7,39 33,59 20,15 47,26 65,26 35,0 72,30 72,58 0,24 -51,54 -70,42 -34,-21 -41,1 -13,33 17,19 17,19 -4,13 -16,-5 -23,-2 -28,14 -8,26 -29,21 -33,-9 -3,-21 -4,-22 -17,-4 -16,21 -17,19 -36,-75 -11,-58 -14,-63 -35,-59 -17,3 -24,-2 -28,-20 -4,-12 -11,-23 -16,-23 -13,0 -13,37 0,45 16,10 2,25 -22,25 -21,0 -21,0 2,25 21,22 22,25 5,25 -17,0 -17,1 0,20 10,11 13,20 7,20 -5,0 -8,9 -5,20 3,11 1,20 -5,20 -6,0 -8,9 -5,19 3,13 -2,21 -16,26 C 3,957 -1,943 1,815 2,704 4,693 20,697 c 25,7 34,-14 12,-26 -11,-6 -22,-7 -26,-4 -3,3 -6,-1 -6,-10 0,-8 6,-17 13,-20 9,-4 9,-7 0,-18 C 3,609 0,532 0,303 V 0 l 198,2 c 108,1 170,3 138,5 l -59,4 32,33 32,33 -31,1 c -16,0 -30,-3 -30,-9 0,-5 -12,-8 -26,-7 l -26,2 23,19 c 15,12 32,17 49,13 70,-16 86,-17 105,-3 19,15 18,16 -15,30 l -35,15 68,32 68,32 41,-32 c 22,-18 73,-45 113,-61 40,-15 101,-42 134,-58 33,-17 64,-31 68,-31 14,0 -49,39 -138,86 -47,24 -96,55 -108,68 l -23,24 86,20 c 99,22 122,20 285,-30 116,-36 114,-41 -19,-52 -147,-12 -111,-25 53,-19 215,8 437,-26 260,-40 -143,-11 -129,-22 27,-22 105,0 153,-4 162,-13 9,-9 9,-12 -3,-13 -7,0 -52,-7 -99,-14 C 1249,3 1261,2 1553,1 l 307,-1 128,64 c 188,94 216,101 407,100 190,-1 221,-7 457,-100 165,-64 167,-65 255,-62 l 88,3 -43,29 c -23,16 -41,31 -38,33 2,2 26,-12 54,-31 46,-34 54,-36 125,-36 h 76 l -29,59 c -35,70 -45,78 -66,57 -8,-9 -22,-16 -31,-16 -27,0 -83,32 -95,53 -11,21 -11,21 -20,-2 -7,-19 -13,-22 -34,-17 -24,6 -26,5 -22,-18 5,-23 3,-24 -31,-19 -20,3 -40,10 -45,14 -6,5 -21,9 -34,9 -19,0 -22,4 -17,20 8,26 -18,37 -57,22 -36,-13 -58,-6 -58,19 0,23 16,25 24,3 5,-13 10,-12 38,7 67,47 79,92 27,103 -19,4 -33,13 -36,26 -3,11 -14,20 -25,20 -16,0 -19,5 -13,29 3,17 2,32 -4,36 -6,3 -11,2 -11,-3 0,-11 -36,-23 -44,-14 -3,3 -1,11 6,19 16,20 -5,41 -26,24 -8,-7 -20,-11 -28,-10 -29,4 -39,-2 -50,-28 -9,-23 -12,-25 -15,-10 -3,12 -10,16 -24,12 -14,-5 -19,-2 -19,11 0,25 31,44 52,33 12,-6 25,-6 39,2 28,15 13,28 -37,32 -21,1 -44,6 -51,10 -6,4 -19,-3 -30,-18 -10,-14 -28,-27 -40,-28 -14,-1 -27,-12 -34,-29 -10,-25 -32,-36 -30,-15 1,4 1,14 1,22 0,9 11,20 25,25 24,9 34,34 17,44 -5,3 -21,-2 -36,-10 -16,-7 -35,-14 -43,-14 -8,0 -17,-9 -20,-20 -4,-13 -14,-20 -30,-20 -20,0 -24,-4 -21,-22 2,-17 9,-23 26,-22 22,1 28,-12 14,-31 -12,-17 -51,-13 -58,7 -7,25 -23,23 -33,-4 l -8,-22 -12,22 c -18,35 -49,27 -42,-11 1,-5 -10,-7 -23,-5 -16,2 -30,-4 -39,-16 -13,-18 -16,-18 -91,-1 -46,10 -88,27 -105,41 -37,30 -150,68 -286,94 -327,62 -375,75 -375,104 0,46 214,122 567,201 151,34 231,57 294,86 67,31 103,40 165,45 105,9 119,17 69,40 l -40,18 95,7 c 116,8 180,18 180,28 0,4 -12,14 -27,22 -26,13 -23,14 60,17 48,1 87,6 87,11 0,5 28,11 61,14 57,5 90,19 77,32 -8,8 -118,25 -165,25 -29,0 -58,9 -90,29 -27,16 -58,32 -71,36 -36,11 -20,17 69,26 155,15 121,45 -69,61 -149,12 -242,5 -259,-18 -11,-15 -32,-13 -240,31 -275,58 -273,57 -273,90 0,20 -5,25 -26,25 -14,0 -36,8 -49,18 -13,10 -80,36 -148,57 -125,39 -126,39 -120,67 3,15 2,35 -1,45 -6,15 -10,14 -32,-10 -25,-27 -56,-29 -35,-3 8,9 6,18 -4,32 -20,27 -19,39 9,69 14,15 30,48 37,76 7,27 16,49 20,49 3,0 12,-20 19,-45 7,-25 16,-45 20,-45 9,0 19,59 21,115 1,47 5,39 14,-28 3,-26 10,-47 15,-47 4,0 12,24 16,53 4,28 9,44 12,35 5,-23 18,-23 31,0 10,16 10,15 11,-3 l 1,-20 9,20 c 6,14 9,4 9,-38 1,-32 8,-88 18,-124 20,-80 26,-70 43,73 13,106 20,131 20,68 0,-44 9,-84 19,-84 3,0 14,19 24,43 l 18,42 15,-29 16,-28 24,36 c 14,20 24,42 23,49 -6,49 -1,54 60,60 33,3 67,9 76,14 10,6 -41,8 -143,5 -99,-3 -166,-1 -178,6 -26,14 76,26 159,18 93,-9 227,-10 272,-1 60,11 34,-6 -73,-50 -51,-21 -96,-43 -99,-48 -9,-14 -4,-95 11,-187 l 12,-75 12,51 c 6,28 14,81 18,117 9,86 24,76 25,-16 0,-65 15,-182 18,-148 16,186 25,241 37,229 8,-8 18,-60 24,-128 6,-63 15,-132 20,-155 5,-22 12,-58 16,-80 l 7,-40 8,35 c 5,19 16,65 25,102 9,38 17,96 19,130 1,35 3,71 3,81 2,15 14,17 106,17 116,0 116,0 116,-79 0,-45 31,-224 40,-234 7,-8 26,129 33,245 2,32 7,61 10,64 15,15 36,-21 47,-80 21,-113 39,-113 61,0 7,35 16,61 20,59 11,-7 19,22 20,78 l 1,52 12,-48 c 6,-26 16,-48 21,-48 18,0 37,122 26,162 -15,49 -14,62 3,56 8,-3 17,-1 19,6 2,7 11,-3 21,-20 9,-18 20,-33 25,-33 5,0 11,-18 15,-40 6,-38 7,-39 26,-23 11,10 20,28 20,40 0,26 22,40 65,43 47,3 55,1 49,-14 -3,-8 -1,-17 5,-21 6,-3 11,-13 11,-21 0,-8 9,-23 20,-34 11,-11 20,-33 20,-49 0,-55 20,-44 21,11 l 1,53 9,-59 c 9,-64 19,-86 19,-43 0,42 17,31 25,-15 l 8,-43 14,48 c 7,26 17,45 22,43 5,-3 16,-34 26,-68 l 18,-63 18,40 c 10,22 19,45 19,51 0,7 9,14 20,17 14,4 20,14 20,34 l 1,28 24,-28 25,-28 10,25 c 12,32 18,33 30,4 9,-23 9,-23 10,2 1,22 3,21 14,-10 l 13,-35 7,30 8,30 13,-30 c 7,-16 14,-24 14,-17 2,23 19,3 26,-30 l 7,-32 13,24 c 13,23 13,22 20,-25 12,-83 22,-84 35,-6 8,39 17,74 21,77 5,3 11,-13 15,-34 11,-73 30,-81 44,-20 l 7,33 16,-35 15,-34 18,39 18,40 7,-60 c 4,-33 7,-83 8,-112 1,-71 17,-75 32,-8 7,30 15,55 19,55 10,0 20,-38 20,-76 0,-17 4,-44 9,-60 5,-16 15,-58 22,-92 14,-73 21,-67 39,31 7,37 16,70 21,73 5,3 9,25 9,50 0,31 4,43 11,38 6,-3 15,-1 19,6 12,19 32,1 25,-21 -4,-11 2,-38 13,-62 11,-23 23,-51 27,-62 6,-19 8,-19 31,8 27,31 25,34 29,-56 2,-27 6,-51 10,-55 9,-10 35,28 35,51 0,24 24,17 28,-9 12,-78 28,-86 38,-19 5,37 10,45 28,45 32,1 59,45 53,87 -5,30 -4,34 11,28 9,-4 36,-12 60,-18 l 44,-11 -24,-18 c -19,-15 -20,-18 -5,-18 19,0 23,-15 7,-25 -17,-10 -12,-38 6,-31 13,5 14,1 9,-23 -5,-23 -2,-29 14,-34 15,-3 21,-13 21,-31 0,-15 4,-34 9,-44 5,-9 17,-35 27,-57 18,-39 18,-39 22,-13 2,16 8,28 13,28 5,0 9,13 9,29 0,20 6,30 19,34 15,4 18,10 14,28 -5,18 -3,21 11,16 15,-6 16,-2 10,30 -5,28 -4,34 6,28 10,-6 12,-1 7,23 -4,18 -4,39 -1,47 10,24 33,17 41,-12 l 7,-28 7,25 c 6,23 7,22 9,-10 l 2,-35 12,33 c 13,36 25,33 27,-7 1,-25 2,-25 9,4 8,30 8,29 11,-10 1,-22 3,-48 3,-57 0,-9 3,-15 8,-12 4,3 8,25 8,50 0,31 4,44 14,44 8,0 17,-8 19,-17 4,-17 5,-17 6,0 1,19 19,21 94,11 45,-6 46,-7 31,-30 -18,-27 -11,-44 17,-44 17,0 18,-3 8,-22 -9,-16 -9,-23 0,-26 6,-2 11,-12 11,-22 0,-9 7,-23 15,-30 8,-7 15,-21 15,-32 0,-10 6,-21 14,-24 7,-3 17,-24 20,-47 7,-39 8,-41 22,-23 13,18 14,16 15,-25 0,-36 2,-40 9,-21 5,12 14,22 20,22 5,0 10,8 10,18 0,10 7,28 16,40 l 15,23 31,-26 c 16,-14 34,-25 39,-25 5,0 9,71 9,165 v 165 h -36 c -56,0 -178,21 -189,32 -10,10 46,8 173,-8 l 52,-7 v 37 c 0,35 -20,50 -35,26 -8,-13 -166,-13 -331,0 -145,12 -184,18 -184,30 0,8 82,37 170,61 91,24 19,19 -91,-6 -127,-30 -299,-45 -299,-27 0,32 206,107 390,142 187,35 193,37 105,34 -84,-2 -239,-33 -328,-63 -28,-10 -90,-37 -136,-60 -88,-43 -106,-47 -116,-31 -3,5 20,23 52,40 66,35 37,30 -49,-7 -51,-23 -61,-24 -108,-14 -28,6 -74,11 -103,11 -58,1 -49,13 18,25 22,4 114,29 205,57 304,91 699,188 774,188 68,1 67,-9 64,356 -2,215 -6,327 -13,324 -11,-6 -11,-29 0,-76 6,-27 4,-32 -15,-37 -16,-4 -20,-11 -15,-25 3,-11 1,-23 -5,-27 -14,-9 -13,-78 2,-93 9,-9 9,-12 1,-12 -7,0 -15,5 -18,10 -9,15 -25,12 -25,-5 0,-12 -15,-15 -75,-15 h -75 l 20,20 c 22,22 27,45 8,34 -7,-4 -5,2 5,13 18,21 23,43 8,43 -5,0 -14,-13 -21,-29 -6,-16 -22,-39 -35,-51 l -24,-22 6,23 c 3,13 11,30 16,37 6,7 12,32 13,55 2,23 6,53 10,66 6,20 4,22 -14,17 -15,-5 -22,-2 -27,15 -7,22 -8,22 -22,3 -7,-10 -16,-17 -19,-14 -10,8 -41,-85 -48,-142 -9,-67 -20,-88 -38,-70 -9,9 -10,17 -2,30 12,19 6,152 -7,152 -4,0 -13,-16 -20,-35 -16,-43 -41,-43 -50,0 -6,30 -6,30 -15,7 -9,-21 -11,-22 -23,-8 -18,21 -21,20 -56,-9 -25,-22 -28,-29 -17,-45 7,-11 12,-21 12,-24 0,-2 -55,-6 -122,-10 -68,-3 -156,-9 -195,-12 -69,-6 -73,-5 -73,14 0,12 10,27 23,33 69,37 130,86 152,124 l 25,42 273,90 c 149,50 323,101 385,114 l 112,24 v 382 c 0,346 -2,383 -16,383 -12,0 -15,-7 -12,-31 4,-22 0,-33 -14,-40 -18,-10 -18,-12 -4,-28 21,-23 20,-31 -2,-31 -32,0 -33,-13 -5,-32 22,-14 24,-18 10,-18 -10,0 -27,5 -37,10 -31,17 -34,-7 -5,-36 21,-21 24,-29 13,-35 -7,-5 -19,-7 -25,-4 -7,3 -20,8 -28,11 -21,9 -9,-24 22,-57 15,-16 20,-29 15,-33 -6,-4 -14,-2 -17,4 -4,6 -15,8 -26,5 -15,-5 -19,-1 -19,17 0,35 -20,98 -30,98 -6,0 -10,-13 -10,-29 0,-36 -9,-63 -20,-56 -4,2 -5,-15 -3,-40 6,-51 -3,-99 -17,-90 -6,3 -10,1 -10,-5 0,-6 -5,-8 -10,-5 -6,4 -10,12 -9,18 3,25 -1,38 -10,33 -5,-4 -4,7 2,23 6,17 14,28 18,25 4,-2 10,15 14,38 3,24 8,55 11,71 3,15 1,27 -4,27 -11,0 -22,-33 -22,-66 0,-11 -6,-29 -14,-40 -13,-17 -13,-13 -5,30 5,26 7,58 4,70 -4,17 9,31 71,76 42,30 78,59 81,63 9,15 -35,-12 -102,-63 -36,-28 -71,-50 -76,-50 -11,0 -48,76 -49,99 0,7 14,29 31,48 42,48 29,53 -15,6 l -37,-38 7,40 c 10,58 18,69 89,128 69,57 131,92 210,118 l 50,16 3,86 c 2,64 0,87 -10,87 -9,0 -9,3 0,12 7,7 12,40 12,76 0,56 -2,63 -15,52 -10,-8 -12,-18 -6,-29 6,-11 3,-22 -10,-35 -21,-22 -20,-25 -44,79 -45,193 -44,191 -61,135 -7,-25 -14,-55 -14,-67 0,-13 -5,-23 -11,-23 -7,0 -9,-10 -5,-25 5,-18 2,-25 -9,-25 -18,0 -18,-2 -3,-35 6,-14 9,-28 6,-31 -12,-11 -55,43 -67,86 -7,25 -18,56 -24,70 -10,24 -11,22 -23,-28 -6,-29 -17,-59 -23,-66 -9,-10 -9,-16 -1,-21 8,-5 7,-11 -2,-23 -11,-12 -11,-16 0,-20 9,-3 5,-12 -13,-29 -29,-30 -31,-39 -9,-47 22,-8 8,-26 -21,-26 -22,0 -24,-3 -18,-30 3,-19 1,-30 -6,-30 -11,0 -22,33 -20,65 2,35 -24,175 -33,175 -4,0 -8,-13 -8,-29 0,-17 -7,-59 -15,-96 -9,-36 -13,-71 -9,-77 4,-5 2,-13 -2,-17 -5,-3 -14,-17 -20,-31 -10,-22 -12,-17 -23,50 -16,96 -29,130 -30,78 -1,-37 -16,-113 -31,-153 -6,-16 -9,-11 -14,23 -8,42 -26,59 -26,23 0,-23 -25,-45 -41,-35 -8,5 -5,12 10,23 21,16 21,17 3,52 -16,31 -16,39 -4,68 19,48 10,67 -22,45 -43,-27 -49,-5 -9,34 l 38,36 -29,5 c -50,10 -40,28 39,65 140,67 257,96 305,78 23,-9 18,-12 -50,-32 -89,-25 -131,-43 -85,-34 92,18 152,42 223,88 43,29 113,72 155,97 42,24 77,49 77,56 0,7 -7,10 -15,7 -22,-9 -70,16 -83,44 -15,33 -8,42 36,42 20,0 44,5 52,11 14,9 -21,7 -86,-6 -15,-3 -27,3 -38,20 -21,32 -32,25 -46,-25 -6,-22 -15,-40 -20,-40 -6,0 -10,-13 -10,-30 0,-16 -4,-30 -10,-30 -5,0 -10,-7 -10,-16 0,-24 -28,1 -32,29 -5,34 -20,26 -33,-18 -9,-35 -12,-37 -17,-17 -8,30 -22,28 -38,-5 l -12,-28 -11,23 c -5,12 -14,22 -19,22 -4,0 -8,-10 -8,-22 0,-18 -2,-20 -9,-9 -8,12 -12,10 -22,-12 -6,-14 -17,-24 -22,-20 -20,12 -72,11 -87,-2 -8,-7 -27,-15 -42,-19 -21,-5 -28,-3 -28,9 0,8 -5,15 -11,15 -6,0 -9,7 -7,16 2,11 26,23 70,35 37,10 93,36 126,57 68,44 299,138 379,155 l 53,11 v 174 c 0,163 -1,173 -18,168 -13,-5 -21,1 -29,21 -11,29 -11,29 -32,-28 -8,-22 -14,-25 -46,-21 -21,3 -39,11 -43,20 -8,22 -40,52 -54,52 -26,-1 -50,-28 -44,-48 4,-11 2,-23 -4,-27 -5,-3 -10,-14 -10,-25 0,-10 -7,-21 -15,-24 -11,-4 -17,3 -22,24 -8,44 -20,45 -34,5 -7,-19 -16,-35 -20,-35 -3,0 -12,20 -19,45 -12,44 -14,45 -31,29 -11,-10 -19,-23 -19,-31 0,-22 -20,-15 -32,12 -6,14 -9,27 -7,29 2,2 33,13 69,24 l 65,19 -220,1 c -163,1 -221,-2 -227,-11 -6,-9 -8,-9 -8,1 0,8 -19,12 -60,12 -40,0 -60,-4 -60,-12 0,-9 -3,-9 -12,0 -7,7 -45,12 -99,12 -73,0 -88,-3 -94,-17 -6,-17 -7,-17 -19,0 -11,14 -29,17 -100,17 h -86 v -29 c 0,-42 -18,-48 -22,-9 l -3,33 -144,3 c -109,2 -147,-1 -153,-10 -8,-10 -11,-10 -15,0 -3,7 -23,12 -48,12 -25,0 -45,-5 -48,-12 -4,-10 -6,-10 -6,0 -1,6 -14,12 -30,12 -23,0 -34,-8 -52,-36 -23,-38 -39,-33 -39,14 0,13 -6,22 -15,22 -15,0 -22,-19 -28,-75 -3,-30 -3,-30 -13,-6 -10,22 -11,21 -24,-20 -13,-41 -14,-42 -18,-16 -2,16 -10,31 -18,34 -8,3 -14,13 -14,23 0,25 -18,35 -35,20 -12,-10 -15,-9 -15,8 0,26 -19,39 -31,21 -5,-8 -9,-41 -9,-74 -1,-55 -2,-58 -15,-41 -14,19 -15,18 -15,-13 0,-19 -4,-30 -10,-26 -5,3 -10,18 -10,33 0,15 -8,39 -17,52 l -17,24 -7,-24 c -4,-14 -7,-48 -8,-76 -1,-70 -12,-75 -28,-12 -15,57 -28,78 -49,78 -11,0 -14,-16 -14,-65 0,-60 -13,-88 -23,-47 -3,13 -7,10 -17,-13 l -13,-30 -10,39 -10,39 -14,-34 -15,-34 -16,35 -15,35 -13,-30 c -7,-16 -14,-39 -14,-50 l -1,-20 -9,20 c -4,11 -14,42 -21,68 -12,50 -28,48 -30,-3 0,-22 -1,-23 -8,-5 -7,16 -9,14 -14,-14 -4,-19 -7,-44 -7,-57 0,-29 -16,-32 -25,-4 -3,11 -11,20 -17,20 -5,0 -12,-9 -15,-20 -7,-25 -23,-26 -23,-2 0,10 -6,26 -13,37 -13,17 -14,15 -21,-16 l -7,-34 -19,37 c -11,20 -25,40 -31,44 -15,9 -48,-34 -49,-63 0,-28 -22,-26 -33,2 -6,15 -10,16 -16,7 -7,-11 -17,-10 -57,2 -27,8 -58,16 -69,18 -34,6 393,163 585,217 l 35,9 -40,1 c -39,1 -190,-46 -383,-118 -46,-17 -85,-31 -87,-31 -3,0 -11,12 -19,28 l -15,27 -9,-25 -10,-25 -10,25 c -9,22 -11,23 -17,8 -4,-10 -11,-15 -17,-12 -5,3 -16,-3 -24,-15 -20,-28 -32,-27 -40,5 l -6,25 -21,-33 c -18,-29 -21,-31 -25,-13 -2,11 -9,31 -14,45 l -10,25 -23,-29 c -22,-28 -23,-28 -30,-7 -9,28 -23,27 -35,-5 -11,-27 -25,-26 -33,5 -4,17 5,21 82,35 102,18 302,85 256,84 -16,0 -68,-13 -115,-30 z m 2358,-11 c 6,-30 -32,-58 -68,-51 -34,7 -51,24 -23,24 15,0 14,2 -5,16 -37,25 -26,35 35,32 47,-2 58,-7 61,-21 z m 15,-128 c 34,-11 67,-24 72,-29 6,-4 35,-13 65,-19 123,-26 193,-61 120,-61 -16,0 -30,-4 -30,-9 0,-6 16,-7 35,-4 51,8 43,-12 -11,-27 -25,-7 -40,-16 -34,-20 21,-13 -15,-29 -91,-41 -87,-13 -209,-51 -259,-80 -24,-14 -28,-19 -12,-15 25,5 28,-4 10,-22 -7,-7 -13,-18 -13,-24 0,-14 -32,-34 -41,-26 -4,4 -10,24 -15,45 -10,49 -32,113 -39,113 -3,0 -12,-24 -20,-52 l -16,-53 -31,45 c -18,25 -39,54 -46,65 -12,16 -17,17 -29,7 -13,-10 -17,-5 -27,28 -12,41 -30,54 -32,23 0,-10 -6,-2 -14,17 l -13,35 -18,-40 c -10,-22 -17,-45 -16,-51 1,-6 -4,-23 -12,-38 -10,-19 -16,-24 -21,-15 -6,9 -12,7 -22,-7 -13,-18 -14,-18 -19,4 -10,36 -21,25 -41,-40 l -19,-63 -14,62 c -8,34 -17,60 -20,58 -4,-2 -13,-30 -20,-62 -13,-57 -13,-58 -22,-26 -4,18 -13,35 -18,38 -6,3 -10,15 -10,27 0,16 -3,18 -14,9 -11,-9 -15,-9 -19,1 -9,20 -36,-19 -43,-61 -12,-75 -17,-76 -29,-7 -7,43 -15,39 -34,-19 -8,-21 -20,-45 -27,-53 -8,-7 -14,-19 -14,-27 0,-7 -7,-15 -15,-19 -8,-3 -15,-13 -15,-22 0,-15 -10,-16 -92,-10 -180,13 -331,26 -335,30 -4,3 93,64 142,89 52,26 635,217 740,242 55,14 163,34 240,46 77,11 147,25 155,30 11,7 8,8 -10,4 -14,-3 -88,-14 -165,-25 -131,-19 -275,-50 -390,-85 l -50,-15 25,21 c 61,51 218,109 350,128 41,6 86,13 100,15 79,11 184,5 243,-15 z m -778,-69 c 3,-6 -1,-13 -9,-16 -11,-4 -14,-14 -10,-30 4,-17 1,-26 -10,-30 -22,-9 -27,-3 -33,45 -6,40 -5,41 25,41 17,0 34,-5 37,-10 z m 1085,-169 c 0,-5 -14,-12 -31,-16 -26,-6 -28,-9 -15,-18 14,-10 1,-22 -76,-74 -92,-61 -179,-98 -215,-91 -11,2 -18,12 -19,28 -2,55 -4,62 -19,56 -10,-3 -20,5 -30,24 -8,16 -15,31 -15,33 0,7 108,45 155,56 53,12 265,13 265,2 z M 665,4630 c 88,-5 184,-12 213,-16 51,-5 52,-6 52,-39 0,-19 -4,-37 -10,-40 -5,-3 -10,-22 -10,-41 0,-19 -5,-34 -10,-34 -7,0 -8,-13 -4,-35 5,-30 3,-35 -17,-40 -13,-3 -42,-2 -64,2 -32,7 -41,14 -43,33 -2,14 -8,29 -13,34 -5,6 -9,18 -9,27 0,9 -6,29 -14,43 l -14,27 -11,-32 c -6,-17 -9,-34 -7,-38 3,-4 2,-12 -2,-18 -11,-17 -159,43 -167,68 -4,10 -11,19 -16,19 -5,0 -9,13 -9,29 0,17 -4,33 -10,36 -12,7 -13,25 -2,25 4,0 79,-4 167,-10 z m 3585,-30 c 0,-24 0,-24 -34,-7 -29,16 -24,27 11,27 16,0 23,-6 23,-20 z m -3144,-1 c 60,-6 110,-12 112,-14 2,-1 -7,-40 -18,-86 -12,-45 -19,-91 -17,-101 6,-20 -1,-22 -23,-8 -19,11 -31,-7 -24,-36 5,-21 5,-21 -65,-5 -67,15 -71,17 -71,43 0,16 -5,28 -11,28 -6,0 -8,9 -4,20 3,11 2,20 -3,20 -5,0 -12,26 -15,58 -4,32 -9,66 -13,75 -8,21 2,21 152,6 z m 2097,-18 c -65,-52 -124,-81 -164,-82 -24,0 -79,-6 -122,-13 -43,-7 -79,-10 -81,-7 -2,3 -7,21 -11,38 -10,48 -22,49 -36,3 -17,-56 -35,-69 -50,-36 -7,14 -18,26 -26,26 -7,0 -13,4 -13,9 0,5 -3,21 -6,37 l -5,29 261,1 c 144,1 257,-2 253,-5 z m -1838,-15 c 65,-11 70,-14 67,-35 -4,-40 -27,-76 -46,-74 -15,1 -17,-4 -12,-30 4,-21 1,-36 -10,-49 -21,-22 -52,-24 -60,-3 -4,8 -15,15 -25,15 -16,0 -18,3 -9,19 13,26 13,31 -4,31 -9,0 -14,11 -14,33 0,17 -5,45 -11,60 -6,16 -11,33 -11,38 0,12 49,11 135,-5 z m 190,-27 c 50,-8 72,-15 63,-20 -7,-5 -25,-9 -40,-9 -15,0 -29,-4 -32,-9 -3,-5 87,-10 208,-12 118,-3 217,-7 220,-10 4,-3 0,-32 -8,-65 -13,-59 -13,-59 -26,-31 l -13,27 -17,-37 -16,-38 -13,35 -13,35 -12,-33 c -8,-24 -14,-30 -22,-22 -8,8 -16,7 -28,-5 -15,-15 -16,-15 -16,6 0,17 -3,19 -13,10 -8,-6 -17,-8 -21,-4 -3,4 -13,-2 -21,-13 -13,-17 -14,-17 -15,-2 0,11 -5,15 -14,12 -9,-4 -18,7 -26,33 -13,40 -30,66 -30,46 0,-7 -5,-24 -11,-40 l -11,-28 -12,34 -12,34 -22,-28 c -12,-15 -22,-36 -22,-46 0,-16 -3,-17 -25,-7 -14,6 -25,19 -25,29 0,11 -5,16 -13,13 -15,-5 -34,42 -43,109 -8,54 -13,53 101,36 z m 798,-26 c -29,-2 -78,-2 -110,0 -32,2 -8,3 52,3 61,0 87,-1 58,-3 z m 6,-48 c -15,-8 -60,-20 -100,-26 -112,-18 -106,-29 17,-30 70,0 102,-3 89,-9 -11,-5 -71,-9 -134,-9 -119,-1 -135,-6 -60,-19 l 44,-8 -74,-17 c -40,-9 -79,-17 -86,-17 -7,0 -23,34 -37,75 l -25,75 h 196 c 176,-1 193,-2 170,-15 z m 1149,-1 c 32,-5 42,-11 42,-25 0,-10 -9,-24 -20,-31 -11,-7 -20,-21 -20,-30 0,-26 -20,-33 -195,-69 -168,-34 -229,-38 -525,-29 -106,3 -127,1 -262,-33 -81,-20 -151,-37 -157,-37 -5,0 -14,14 -20,31 -8,24 -14,29 -23,21 -7,-5 -70,-27 -140,-48 -70,-21 -126,-40 -124,-42 3,-3 51,8 107,24 15,4 13,-7 -10,-81 -14,-46 -29,-85 -33,-85 -7,0 -10,9 -23,65 l -7,30 -12,-43 c -12,-49 -29,-60 -34,-22 -2,14 -10,32 -17,40 -7,8 -15,26 -17,40 -4,23 -5,22 -22,-15 l -19,-40 -13,40 c -7,22 -13,51 -14,65 -1,20 -7,12 -30,-35 -16,-33 -29,-65 -30,-71 0,-6 -6,-17 -14,-23 -11,-9 -15,-6 -21,16 l -8,28 -10,-35 -10,-35 -11,44 -12,45 -13,-45 c -14,-44 -14,-44 -23,-16 -9,26 -28,38 -28,17 0,-5 -4,-10 -8,-10 -13,0 -32,48 -26,65 4,8 -1,17 -10,21 -9,3 -13,10 -10,15 3,6 0,17 -7,25 -6,8 -10,16 -8,18 2,2 52,11 111,20 59,8 154,28 210,45 250,71 329,90 413,101 50,6 198,31 330,55 l 240,45 245,-5 c 135,-3 264,-8 288,-11 z m 859,-21 c -3,-10 -5,-4 -5,12 0,17 2,24 5,18 2,-7 2,-21 0,-30 z m 356,-52 c 7,-7 0,-12 -19,-16 -48,-10 -146,-46 -196,-71 -76,-38 -128,-25 -115,28 4,12 1,28 -5,35 -6,8 -9,16 -6,18 23,23 319,28 341,6 z M 160,4380 c 112,-30 200,-63 200,-73 0,-5 -9,-11 -21,-14 -20,-6 -21,-14 -4,-55 5,-14 2,-18 -14,-18 -25,0 -26,-7 -4,-32 15,-17 14,-18 -15,-18 -43,0 -48,-15 -13,-41 33,-24 33,-40 1,-32 -17,5 -20,0 -20,-30 0,-41 -15,-57 -25,-27 -8,26 -28,26 -40,-2 -6,-12 -17,-24 -25,-26 -12,-4 -11,0 2,21 14,20 15,26 4,30 -9,3 -12,15 -9,31 5,22 2,26 -18,26 h -22 l 22,24 c 19,20 20,24 7,29 -9,4 -13,13 -10,22 5,13 1,15 -22,9 -24,-5 -27,-4 -16,7 15,17 16,40 0,37 -8,-2 -11,8 -9,30 1,21 -2,32 -9,30 -7,-2 -12,15 -14,45 -1,26 -2,47 -1,47 0,0 34,-9 75,-20 z m 3909,-5 c 17,-8 31,-17 31,-19 0,-2 -52,-21 -116,-41 -155,-48 -211,-74 -320,-146 l -91,-60 -49,26 c -36,19 -56,24 -78,19 -36,-8 -148,-55 -143,-60 2,-2 38,8 81,23 67,23 82,25 107,15 95,-39 81,-40 157,10 38,26 100,62 138,81 83,42 281,107 325,107 35,0 137,-47 184,-84 l 30,-24 -27,-7 c -32,-8 -37,-29 -11,-44 16,-8 15,-10 -7,-15 -14,-3 -34,-5 -45,-3 -31,3 -24,-25 12,-48 42,-26 41,-35 -3,-35 -22,0 -33,-4 -29,-11 4,-6 -1,-17 -11,-24 -18,-13 -17,-16 19,-49 l 38,-35 -28,-7 c -16,-3 -32,-12 -38,-19 -5,-6 -23,-19 -40,-29 l -30,-17 65,5 c 36,3 76,8 89,12 17,5 22,4 17,-4 -12,-20 -100,-40 -204,-47 l -101,-7 -11,43 c -23,88 -22,87 -32,54 -6,-16 -17,-46 -26,-65 -13,-29 -17,-32 -20,-15 -2,11 -9,25 -14,32 -5,7 -7,17 -3,23 3,5 -1,13 -9,16 -9,3 -16,14 -16,23 0,9 -4,21 -10,27 -5,5 -16,39 -23,74 l -14,65 -7,-50 c -4,-27 -11,-58 -16,-67 -5,-10 -7,-24 -4,-31 3,-8 -2,-17 -10,-20 -9,-4 -12,-14 -9,-26 3,-12 1,-21 -6,-21 -6,0 -11,-7 -11,-15 0,-8 5,-15 11,-15 8,0 8,-4 0,-14 -6,-7 -8,-21 -5,-31 6,-15 4,-16 -14,-6 -18,9 -21,7 -31,-20 -15,-45 -31,-26 -32,39 -1,31 -4,68 -9,82 -7,24 -7,24 -17,-10 l -10,-35 -9,55 -8,55 -11,-55 c -13,-59 -16,-56 -36,34 -14,65 -16,63 -44,-39 l -17,-60 -16,35 -16,35 -4,-35 c -7,-63 -45,-83 -57,-30 -8,37 -22,46 -30,20 -10,-32 -32,-23 -46,17 l -12,36 -13,-24 -13,-24 -1,32 c 0,40 -20,55 -21,16 -1,-25 -2,-24 -14,12 l -12,40 -8,-50 c -7,-41 -9,-46 -16,-27 -9,24 -25,29 -31,10 -3,-7 -10,-8 -17,-3 -9,5 -12,21 -7,51 5,36 3,44 -10,44 -12,0 -14,3 -6,13 6,7 7,18 2,26 -4,8 -6,20 -3,28 4,9 0,11 -11,7 -9,-3 -16,-10 -16,-16 0,-5 -4,-7 -9,-4 -5,3 -12,27 -16,53 -6,41 -8,44 -18,28 -6,-11 -16,-37 -23,-60 l -13,-40 v 42 c -1,62 -17,61 -37,-2 -10,-30 -21,-55 -25,-55 -3,0 -9,-13 -12,-30 -4,-18 -11,-28 -19,-25 -15,6 -35,-35 -47,-96 -5,-24 -9,-38 -10,-30 -1,7 -7,11 -16,7 -9,-3 -15,0 -15,8 0,7 -7,19 -15,26 -8,7 -15,21 -15,30 0,10 -5,20 -12,22 -6,2 -11,24 -11,51 1,52 -3,59 -16,25 -7,-20 -12,-12 -31,50 l -22,74 -20,-54 c -10,-29 -24,-71 -30,-93 -13,-46 -38,-88 -47,-80 -8,8 -29,112 -31,150 -1,23 -6,15 -20,-34 -10,-35 -25,-68 -34,-73 -9,-5 -16,-18 -16,-29 0,-33 -25,-16 -26,17 0,22 -4,28 -17,26 -14,-2 -15,1 -7,24 11,29 0,79 -28,122 -23,35 -32,26 -32,-32 0,-30 -5,-58 -10,-61 -6,-4 -8,-15 -5,-26 4,-10 2,-19 -3,-19 -16,0 -37,32 -38,59 -1,14 -5,53 -8,87 l -6,61 138,34 c 146,36 164,37 482,28 134,-4 142,-3 545,82 105,22 219,44 255,49 91,12 231,5 269,-15 z m 271,-4 c 0,-6 -5,-13 -10,-16 -6,-4 -10,-15 -8,-24 4,-21 -19,-51 -39,-51 -7,0 -36,13 -64,29 l -50,28 73,20 c 87,24 98,26 98,14 z M 865,4356 c 42,-18 43,-28 8,-55 l -26,-21 21,-23 c 25,-27 26,-36 11,-71 -12,-27 -39,-38 -60,-25 -9,5 -6,11 13,20 23,10 25,14 15,30 -7,11 -20,19 -29,19 -21,0 -22,4 -8,31 9,16 7,19 -12,19 -16,0 -19,3 -11,11 6,6 9,26 6,45 -5,30 -3,34 16,34 12,0 37,-7 56,-14 z m 235,-31 c 38,-13 45,-32 19,-48 -15,-9 -43,-4 -137,28 -9,3 -8,9 5,24 18,21 42,20 113,-4 z m 367,-52 c -9,-9 -20,-14 -24,-10 -3,4 2,14 13,21 25,19 33,10 11,-11 z m -355,-26 c 87,-26 102,-35 70,-44 -24,-6 -26,-11 -12,-33 6,-9 5,-17 -3,-22 -8,-5 -1,-19 23,-44 l 35,-36 -34,7 c -34,7 -34,7 -28,-24 4,-19 2,-40 -5,-51 -10,-15 -10,-22 0,-32 23,-23 12,-29 -43,-23 -53,4 -123,31 -112,42 3,2 14,0 24,-5 10,-5 30,-12 46,-16 22,-5 27,-3 27,13 0,10 -7,22 -16,25 -10,4 -13,13 -9,26 5,17 2,20 -27,21 l -33,1 33,14 c 37,16 41,31 10,36 -17,2 -22,9 -21,26 2,13 -1,21 -5,18 -4,-2 -14,-1 -21,4 -11,6 -11,12 3,31 23,33 21,62 -3,54 -11,-3 -22,-1 -26,5 -10,16 16,42 34,36 9,-3 51,-16 93,-29 z m 211,3 c 20,0 20,-1 5,-16 -15,-15 -14,-18 9,-39 29,-24 24,-46 -7,-38 -25,7 -36,-18 -21,-46 14,-26 -2,-36 -21,-13 -10,12 -14,37 -12,87 3,104 3,103 15,83 5,-10 20,-18 32,-18 z m 997,-49 c 0,-22 -4,-42 -8,-45 -5,-3 -7,-30 -4,-61 3,-37 1,-55 -7,-55 -6,0 -11,4 -11,10 0,5 -10,9 -22,7 -16,-1 -23,3 -23,15 0,9 -4,20 -8,24 -4,4 -7,24 -7,45 0,40 -15,61 -23,32 -4,-14 -5,-13 -6,4 -1,25 9,33 59,49 57,19 60,17 60,-25 z m -694,-16 c -6,-19 -14,-35 -18,-35 -3,0 -9,-14 -13,-31 -5,-21 -11,-29 -22,-25 -11,5 -14,-1 -12,-22 4,-36 -7,-52 -37,-52 -21,0 -24,3 -19,21 6,19 4,21 -19,17 -28,-6 -36,9 -11,19 9,3 22,18 30,33 13,25 13,29 0,34 -8,3 -22,3 -31,-1 -14,-5 -16,-2 -10,20 4,19 2,27 -6,27 -8,1 -5,7 6,15 14,10 45,15 96,15 h 77 z M 125,4008 c 35,-16 30,-35 -8,-29 -4,1 -14,-13 -22,-31 l -14,-33 -1,32 c 0,22 -7,36 -21,44 -17,9 -19,13 -8,20 19,12 43,11 74,-3 z m 1415,-18 c 0,-5 -7,-10 -16,-10 -8,0 -12,5 -9,10 3,6 10,10 16,10 5,0 9,-4 9,-10 z m 603,-35 c 37,-8 102,-29 145,-47 73,-32 77,-35 74,-63 -1,-17 -6,-93 -11,-170 -4,-77 -8,-115 -9,-85 -4,120 -15,223 -22,204 -6,-16 -22,-160 -33,-288 -1,-16 -7,-31 -14,-33 -7,-3 -14,19 -18,64 -4,37 -10,72 -13,77 -5,10 -42,-99 -42,-126 0,-10 -4,-18 -10,-18 -5,0 -10,11 -10,25 0,14 -4,25 -10,25 -5,0 -10,6 -10,13 0,7 -9,20 -20,30 -13,11 -20,29 -20,51 0,63 -22,89 -34,41 -4,-14 -10,-25 -15,-25 -7,0 -23,52 -26,85 0,6 -4,16 -8,23 -5,6 -6,15 -4,20 3,4 -3,43 -12,87 l -17,79 -12,-58 c -7,-33 -12,-70 -12,-83 0,-14 -6,-23 -15,-23 -15,0 -21,-21 -8,-33 3,-4 7,-20 7,-37 1,-21 -4,-30 -15,-30 -9,0 -18,-3 -22,-6 -7,-7 13,-56 28,-66 10,-8 6,-10 -25,-12 -8,-1 -17,-11 -20,-24 -7,-33 -24,-32 -28,1 -2,15 -7,27 -11,27 -5,0 -11,33 -15,73 -3,39 -10,85 -14,101 -7,25 -10,20 -31,-53 -13,-45 -27,-81 -32,-81 -5,0 -12,12 -15,28 -10,40 -24,54 -51,48 -18,-5 -24,-1 -29,19 -7,29 -12,30 -41,10 -14,-10 -24,-12 -28,-5 -3,5 -1,10 4,10 6,0 11,7 11,15 0,8 -7,15 -15,15 -8,0 -15,5 -15,10 0,6 6,10 14,10 23,0 31,22 12,36 -11,8 -13,14 -7,19 16,9 13,25 -4,25 -8,0 -15,7 -15,15 0,18 -14,19 -41,5 -12,-7 -19,-7 -19,-1 0,11 127,52 230,75 86,19 287,19 373,1 z M 889,3936 c 7,-5 19,-23 27,-42 9,-20 22,-34 36,-36 31,-4 32,-21 2,-57 -21,-26 -24,-34 -14,-46 10,-12 9,-15 -9,-15 -29,0 -37,26 -15,51 13,15 15,22 6,31 -7,7 -12,8 -12,3 0,-6 -4,-4 -9,4 -7,11 -19,6 -56,-24 l -46,-39 3,40 c 2,31 9,41 31,52 36,17 35,39 -2,44 -35,5 -61,-7 -61,-28 0,-8 -4,-12 -10,-9 -21,13 -10,54 18,68 29,15 89,16 111,3 z m 3861,-3 c 0,-9 -10,-27 -22,-41 -13,-13 -23,-31 -23,-39 0,-9 -6,-18 -12,-20 -9,-3 -13,8 -13,35 0,32 6,44 28,61 33,25 42,26 42,4 z M 564,3914 c 9,-24 8,-29 -18,-57 -15,-17 -27,-23 -31,-16 -4,6 0,18 9,28 9,10 16,27 16,39 0,26 15,29 24,6 z m 550,-17 c -3,-9 -12,-17 -20,-17 -17,0 -17,5 -2,30 14,22 32,12 22,-13 z m 3542,-33 c -3,-9 -6,-21 -6,-27 -1,-13 -30,22 -30,35 0,4 9,8 21,8 15,0 19,-4 15,-16 z M 749,3828 c 0,-37 -2,-40 -10,-20 -9,24 -29,22 -29,-4 0,-8 -4,-12 -10,-9 -16,10 -11,53 8,64 33,20 42,13 41,-31 z m 1658,20 c -3,-8 -6,-5 -6,6 -1,11 2,17 5,13 3,-3 4,-12 1,-19 z m 1753,-32 c 6,-8 28,-16 48,-18 36,-3 36,-3 15,-16 -22,-12 -50,-17 -149,-29 -39,-5 -42,-3 -53,28 -14,40 -14,37 7,42 41,11 120,7 132,-7 z m -1614,-63 c 83,-46 92,-62 36,-63 -44,0 -62,-18 -63,-63 -1,-23 -5,-55 -9,-72 -8,-30 -8,-30 -9,8 -1,42 -17,50 -27,12 -14,-55 -28,-25 -44,93 -5,37 -12,86 -16,110 l -7,43 28,-11 c 15,-6 65,-31 111,-57 z m 872,46 c 63,-15 215,-86 208,-97 -3,-5 -18,-9 -33,-10 -44,-1 -161,-29 -240,-56 -39,-13 -74,-22 -77,-18 -9,9 -80,32 -84,27 -2,-2 11,-11 30,-21 30,-15 31,-18 13,-25 -34,-13 -104,-10 -143,7 -45,18 -131,76 -132,87 0,12 156,83 220,100 67,18 175,21 238,6 z m 1084,-39 c -2,-17 -8,-33 -13,-36 -5,-3 -9,-16 -9,-30 0,-19 -5,-25 -17,-22 -19,3 -32,48 -14,48 6,0 11,5 11,10 0,14 30,60 39,60 4,0 6,-14 3,-30 z m 128,-5 c 10,-13 10,-23 -4,-59 -21,-54 -87,-106 -71,-56 3,11 3,25 -1,32 -4,7 -9,32 -10,56 -1,36 2,45 20,52 23,8 45,0 66,-25 z M 797,3738 c -3,-8 -6,-5 -6,6 -1,11 2,17 5,13 3,-3 4,-12 1,-19 z m 3343,-23 105,-12 -62,-29 c -39,-18 -63,-35 -63,-45 0,-11 -16,-19 -57,-26 -68,-13 -77,-7 -89,60 -7,38 -8,40 -15,17 -4,-14 -7,-40 -8,-57 -1,-35 -6,-39 -31,-23 -12,7 -12,12 -2,22 18,18 15,27 -15,39 -25,9 -26,12 -10,20 23,13 22,29 -2,29 -10,0 -22,7 -25,16 -5,14 4,15 81,9 49,-4 135,-13 193,-20 z M 808,3684 c -7,-15 -19,-29 -26,-30 -7,-1 -8,0 -2,3 5,2 10,13 10,24 0,10 5,19 10,19 6,0 10,8 11,18 0,9 3,12 6,5 2,-7 -2,-24 -9,-39 z m 408,21 c 76,-39 102,-61 87,-76 -7,-7 -13,-19 -13,-26 0,-7 -9,-22 -20,-33 -11,-11 -17,-26 -14,-35 4,-10 0,-15 -13,-15 -30,0 -35,-11 -16,-33 18,-19 17,-20 -11,-13 -26,7 -28,5 -22,-18 4,-15 1,-26 -6,-28 -18,-6 7,-84 29,-93 15,-5 15,-8 3,-15 -10,-6 -18,-3 -27,10 -8,11 -20,16 -33,13 -11,-3 -26,0 -33,6 -8,6 -17,8 -20,4 -4,-3 -7,6 -7,20 0,17 -5,27 -15,27 -11,0 -15,12 -15,43 l -1,42 -23,-29 -24,-29 -16,32 c -18,34 -26,37 -44,19 -11,-11 -12,-11 -26,36 -5,17 -34,15 -45,-2 -5,-9 -11,-4 -20,14 -9,21 -14,24 -25,15 -27,-22 -26,6 2,60 24,48 31,54 62,57 40,4 70,27 70,54 0,16 9,18 93,18 80,0 100,-4 143,-25 z m 2579,5 c -14,-16 -15,-23 -5,-34 10,-13 7,-16 -14,-22 -17,-4 -25,-12 -24,-22 2,-12 -11,-19 -52,-29 l -55,-12 70,5 70,5 -23,-20 c -13,-12 -20,-25 -16,-35 4,-11 0,-16 -13,-16 -11,0 -22,-3 -25,-6 -10,-10 4,-44 18,-44 26,0 14,-15 -20,-26 -49,-15 -66,7 -66,86 0,33 -2,60 -5,60 -13,0 -161,-43 -193,-57 -20,-8 -58,-28 -84,-45 l -47,-29 -66,20 c -37,12 -88,21 -114,21 -46,1 -46,1 -24,19 31,26 345,128 450,146 48,8 120,24 158,35 93,25 103,25 80,0 z m -844,-59 c 114,-46 175,-78 165,-88 -3,-3 -25,1 -48,10 -99,37 -228,68 -298,72 l -75,4 70,-10 c 77,-10 189,-40 274,-72 l 55,-20 -23,-18 c -13,-11 -35,-19 -50,-19 -21,0 -29,7 -39,33 l -13,32 -17,-30 c -9,-16 -17,-48 -18,-71 0,-22 -8,-51 -16,-65 -25,-38 -32,-114 -13,-132 12,-13 13,-20 3,-41 -15,-34 -29,-33 -22,2 4,18 -4,47 -23,87 -23,49 -28,56 -30,35 -7,-61 -25,-130 -34,-125 -5,4 -9,15 -9,26 0,29 -17,14 -25,-21 -8,-36 -25,-40 -25,-6 0,14 -4,28 -10,31 -5,3 -10,-1 -10,-9 0,-23 -15,-19 -29,7 -9,17 -9,30 -1,51 8,23 7,32 -5,46 -9,10 -15,36 -15,66 0,48 -13,85 -22,68 -3,-5 -8,-25 -12,-45 -6,-31 -10,-37 -31,-35 -22,1 -25,5 -25,42 0,23 -3,56 -7,74 l -6,33 104,-5 c 57,-3 124,-13 149,-21 54,-19 67,-13 17,8 -52,21 -173,38 -227,31 l -47,-6 -13,45 c -7,25 -11,47 -9,49 17,15 148,34 219,32 73,-2 100,-8 191,-45 z m 1502,-18 c 32,-6 36,-23 7,-30 -22,-6 -27,-28 -7,-37 8,-3 7,-9 -7,-20 -12,-9 -17,-23 -13,-36 4,-16 0,-20 -19,-20 -28,0 -31,-16 -7,-42 15,-17 15,-18 -2,-18 -12,0 -15,-5 -11,-16 5,-13 2,-15 -14,-11 -21,5 -28,-7 -9,-18 7,-5 5,-13 -6,-25 -15,-16 -14,-19 9,-38 15,-11 26,-23 26,-26 0,-3 -23,-6 -52,-6 -53,0 -88,19 -88,48 0,12 -2,12 -17,1 -13,-11 -17,-11 -20,-1 -3,6 -11,12 -19,12 -8,0 -14,5 -14,10 0,6 -11,15 -25,20 -14,5 -25,17 -25,26 0,13 -4,12 -18,-6 -13,-17 -24,-21 -40,-16 -12,4 -22,12 -22,17 0,5 -7,9 -15,9 -8,0 -15,9 -15,20 0,11 -5,20 -11,20 -6,0 -8,7 -5,16 4,9 2,22 -3,28 -4,6 -11,27 -15,47 l -6,36 56,12 c 71,14 111,14 119,1 4,-6 -7,-15 -24,-21 -33,-12 -42,-42 -17,-52 35,-14 126,33 126,64 0,31 99,73 150,63 14,-3 37,-8 53,-11 z m 219,-13 c 2,-7 14,-7 36,-1 28,9 32,7 32,-10 0,-11 6,-27 14,-35 16,-15 11,-94 -7,-105 -5,-4 -7,-19 -3,-34 5,-20 3,-26 -6,-23 -7,3 -12,14 -10,25 2,11 -4,23 -13,26 -8,4 -15,16 -15,27 0,11 -5,20 -11,20 -8,0 -8,4 0,14 9,11 9,16 0,22 -8,4 -18,-1 -27,-14 -8,-12 -21,-22 -28,-22 -16,0 -19,16 -4,25 6,3 10,19 10,35 0,47 21,81 32,50 z m -3222,-21 c 19,-12 47,-33 63,-47 24,-23 28,-24 40,-9 9,12 26,15 64,14 42,-2 55,-7 72,-29 25,-31 28,-60 6,-52 -8,4 -15,2 -15,-3 0,-5 -7,-18 -16,-29 -14,-18 -15,-16 -10,23 8,54 -10,66 -19,12 -8,-48 5,-70 30,-49 20,16 21,15 30,-44 6,-42 4,-48 -9,-43 -11,5 -16,1 -16,-14 0,-11 -7,-22 -15,-25 -8,-3 -17,-15 -21,-26 -3,-11 -8,-17 -11,-15 -2,3 3,19 11,35 17,33 12,60 -13,79 -12,9 -15,27 -13,76 2,67 -11,96 -30,63 -8,-14 -12,-15 -24,-5 -12,10 -16,8 -21,-9 -4,-17 -10,-21 -29,-16 -34,9 -31,-15 6,-51 36,-34 40,-60 9,-50 -18,6 -21,4 -17,-12 5,-17 2,-18 -28,-9 -39,12 -42,21 -14,38 11,7 20,18 20,25 0,16 -6,16 -31,3 -13,-7 -19,-7 -19,0 0,5 4,10 9,10 16,0 23,38 12,59 -7,12 -19,18 -31,16 -16,-3 -20,2 -20,21 0,13 -9,33 -20,44 -11,11 -20,25 -20,30 0,17 54,11 90,-11 z m -650,-34 c -7,-20 -14,-34 -17,-31 -3,2 0,21 7,41 7,20 14,34 17,31 3,-2 0,-21 -7,-41 z m 1617,-177 c -1,-40 -3,-10 -3,67 0,77 1,110 3,73 2,-37 2,-100 0,-140 z m 1189,141 c -4,-28 -13,-57 -20,-65 -8,-7 -12,-30 -11,-53 2,-28 -2,-42 -12,-46 -9,-3 -13,-13 -10,-25 7,-28 -9,-35 -17,-7 l -6,22 -14,-24 c -11,-20 -14,-21 -19,-6 -4,9 -7,25 -7,36 0,30 -17,22 -24,-12 -6,-30 -26,-32 -26,-3 0,8 -4,14 -10,14 -5,0 -10,-17 -11,-37 0,-21 -4,-47 -8,-58 -7,-18 -9,-17 -19,10 l -10,30 -2,-40 c -1,-36 -2,-38 -11,-16 -9,23 -10,23 -23,6 -14,-19 -18,-7 -41,113 -4,18 -9,31 -12,29 -2,-3 -11,-38 -18,-79 -7,-40 -14,-63 -14,-51 -1,25 -21,43 -21,19 0,-9 -6,-16 -14,-16 -7,0 -16,-9 -19,-21 -9,-34 -26,-12 -33,43 -6,46 -8,49 -20,33 -8,-10 -16,-16 -18,-14 -3,3 -18,45 -34,94 l -29,90 -7,-50 c -9,-59 -30,-104 -40,-86 -4,7 -5,18 -2,26 3,8 -2,28 -10,44 -30,60 -20,66 91,65 74,-1 115,-7 158,-22 l 58,-21 22,20 c 39,36 202,103 261,108 5,1 6,-22 2,-50 z m 337,31 c -6,-23 -13,-24 -47,-9 -33,15 -24,29 19,29 28,0 32,-3 28,-20 z M 478,3432 c 25,-20 55,-58 72,-93 36,-70 37,-77 8,-73 -79,11 -97,16 -95,26 1,7 -11,13 -27,14 -34,4 -48,21 -41,50 3,13 -1,24 -8,27 -9,3 -14,24 -15,54 -1,26 -5,57 -9,68 -6,21 14,8 115,-73 z m 4148,64 c 10,-8 16,-17 12,-21 -7,-7 -48,16 -48,27 0,12 14,9 36,-6 z m 166,-11 c 3,-14 1,-28 -3,-31 -5,-3 -9,9 -9,25 0,38 6,40 12,6 z M 2341,3210 c 3,-105 0,-166 -6,-168 -6,-1 -10,81 -11,230 -1,149 1,210 6,168 4,-36 9,-139 11,-230 z m 1589,281 c 0,-5 -7,-11 -15,-15 -15,-5 -20,5 -8,17 9,10 23,9 23,-2 z m -2160,-25 c 0,-7 10,-20 22,-28 17,-12 25,-31 33,-79 7,-44 14,-63 23,-61 8,1 11,-2 7,-8 -9,-15 -41,-12 -55,5 -6,8 -9,19 -5,25 3,6 -3,10 -16,10 -21,0 -21,1 -4,20 24,26 13,55 -15,40 -23,-12 -25,-8 -7,21 10,17 9,22 -11,37 -24,19 -20,32 10,32 10,0 18,-6 18,-14 z m 2145,-16 20,-9 h -20 c -11,0 -27,4 -35,9 -13,9 -13,10 0,9 8,0 24,-4 35,-9 z m -202,-51 c -6,-6 -19,-9 -29,-6 -17,3 -16,5 6,14 28,12 39,8 23,-8 z m -1583,-13 c 0,-8 -5,-16 -12,-18 -7,-3 -4,-12 10,-26 18,-18 20,-27 12,-42 -5,-10 -10,-29 -10,-41 0,-23 -26,-59 -42,-59 -5,0 -4,9 2,20 6,11 8,24 5,29 -3,5 0,21 7,36 8,19 9,28 0,37 -8,8 -14,4 -23,-15 -18,-40 -39,-43 -39,-4 0,40 24,77 51,77 10,0 19,5 19,10 0,6 5,10 10,10 6,0 10,-6 10,-14 z m -1176,-5 c 3,-5 27,-19 53,-31 69,-31 113,-63 113,-80 1,-8 7,-28 15,-45 l 14,-30 -5,40 c -4,30 -3,36 5,25 14,-19 14,-70 1,-70 -6,0 -20,15 -31,33 l -21,32 7,-37 c 7,-46 8,-45 -104,-14 -81,22 -86,25 -118,72 -18,27 -33,54 -33,60 0,15 58,52 82,53 9,1 19,-3 22,-8 z m 3835,-60 c 0,-39 -8,-27 -23,33 -6,26 -5,28 8,17 10,-8 16,-28 15,-50 z m -16,-30 c 24,-60 25,-63 5,-44 -11,12 -22,35 -24,53 -2,17 -8,39 -14,48 -8,14 -10,12 -11,-13 -1,-16 -1,-34 0,-38 7,-39 8,-74 2,-89 -5,-15 -9,-13 -23,12 -11,19 -13,30 -6,30 6,0 2,10 -10,23 -31,33 -29,57 3,27 l 24,-23 -6,38 c -4,26 -2,40 8,46 18,11 22,5 52,-70 z m 67,69 c 0,-5 -2,-10 -4,-10 -3,0 -8,5 -11,10 -3,6 -1,10 4,10 6,0 11,-4 11,-10 z m -3380,-19 c 0,-12 -20,-25 -27,-18 -7,7 6,27 18,27 5,0 9,-4 9,-9 z m 263,-12 c -6,-6 -9,-17 -7,-24 3,-7 1,-16 -5,-20 -12,-7 -15,-97 -5,-108 4,-3 19,10 33,31 l 27,36 -25,22 c -23,20 -24,23 -8,29 19,8 47,-10 47,-31 0,-8 -20,-43 -44,-78 l -45,-65 -3,86 c -3,73 0,90 17,113 11,16 22,26 24,24 3,-2 0,-9 -6,-15 z m 2343,-8 c 6,-12 15,-21 20,-19 5,2 10,-7 12,-19 4,-27 -14,-30 -46,-7 -20,14 -22,14 -22,0 0,-19 -10,-20 -45,-4 -30,13 -34,48 -6,48 10,0 21,7 25,15 8,22 49,12 62,-14 z m -2499,-13 c -3,-7 -5,-2 -5,12 0,14 2,19 5,13 2,-7 2,-19 0,-25 z m 53,-18 c -18,-33 -25,-15 -9,22 9,23 15,28 17,16 2,-9 -2,-27 -8,-38 z m -80,8 c 0,-5 -5,-6 -11,-2 -6,3 -15,0 -20,-7 -7,-11 -9,-9 -9,8 0,16 5,20 20,16 11,-3 20,-10 20,-15 z m -350,-65 c 0,-83 -5,-79 -13,10 -4,43 -3,66 3,62 6,-3 10,-36 10,-72 z m 2641,56 c 15,-15 24,-18 32,-10 17,17 34,13 62,-14 29,-30 31,-35 10,-35 -18,0 -19,-23 -3,-53 10,-20 10,-21 -6,-7 -10,8 -23,26 -29,40 -8,20 -11,22 -14,8 -6,-26 -40,-22 -68,8 l -25,27 v -27 c 0,-19 -5,-26 -20,-26 -40,0 -54,69 -18,94 30,22 54,20 79,-5 z m 1100,-6 c -8,-15 -10,-15 -11,-2 0,17 10,32 18,25 2,-3 -1,-13 -7,-23 z m 42,-51 c -44,-54 -61,-52 -19,3 20,26 37,53 37,59 1,6 3,3 6,-8 3,-10 -7,-33 -24,-54 z m -3754,11 c -1,-34 -2,-35 -9,-13 -11,36 -11,50 0,50 6,0 10,-17 9,-37 z m 2961,17 c 0,-13 5,-17 14,-14 8,3 19,-4 26,-16 11,-20 13,-21 30,-5 24,22 42,11 34,-21 -5,-18 -1,-29 11,-38 11,-8 16,-20 12,-29 -7,-18 -76,-15 -88,4 -6,10 -13,9 -28,-6 -21,-18 -22,-18 -44,3 -13,12 -31,22 -41,22 -15,0 -17,-6 -11,-42 4,-24 19,-74 34,-113 23,-62 26,-83 24,-177 -2,-81 1,-109 12,-118 12,-10 18,1 36,62 38,127 81,188 133,188 16,0 13,-4 -14,-18 -45,-22 -73,-65 -105,-162 -15,-44 -30,-82 -35,-85 -5,-3 -14,-31 -20,-63 -7,-31 -15,-62 -19,-69 -3,-6 -5,76 -3,183 3,178 1,199 -17,237 -11,23 -25,70 -32,105 -11,59 -21,74 -34,52 -8,-13 -16,-12 -37,4 -16,12 -17,16 -3,44 23,45 38,54 69,42 23,-9 28,-7 36,14 14,37 60,50 60,16 z m 147,-2 c 35,-21 36,-23 15,-26 -23,-3 -62,22 -62,40 0,12 5,10 47,-14 z M 620,3235 c 226,-29 330,-72 525,-220 71,-55 152,-114 180,-132 44,-29 47,-33 24,-33 -55,0 -188,58 -614,265 -71,35 -141,66 -155,69 -25,6 131,-73 469,-238 114,-56 178,-92 169,-97 -58,-31 -204,1 -482,107 -94,36 -177,66 -183,66 -7,1 -13,10 -13,22 0,15 -3,17 -12,8 -7,-7 -24,-12 -39,-12 -26,0 -27,1 -18,35 11,37 4,79 -11,70 -5,-3 -11,-19 -15,-35 -11,-48 -23,-34 -14,15 9,50 4,75 -16,75 -22,0 -23,24 -1,42 14,12 31,16 51,13 17,-2 86,-12 155,-20 z m 630,-11 c -18,-21 -24,-10 -9,18 8,14 14,18 17,10 2,-7 -2,-19 -8,-28 z m 291,-13 c -6,-11 -11,-39 -12,-63 l -1,-43 -10,35 c -5,19 -14,46 -19,60 -9,23 -8,23 5,7 15,-20 19,-16 31,28 6,20 9,25 12,13 2,-9 -1,-26 -6,-37 z m 125,23 c -4,-9 -9,-15 -11,-12 -3,3 -3,13 1,22 4,9 9,15 11,12 3,-3 3,-13 -1,-22 z m -716,-41 c 377,-118 442,-144 600,-243 46,-29 121,-65 167,-81 48,-16 101,-42 126,-62 59,-48 203,-149 260,-182 26,-15 46,-30 43,-33 -3,-2 -16,2 -30,11 -13,9 -70,36 -125,61 -56,24 -152,74 -214,109 -104,61 -167,92 -167,83 0,-6 244,-148 305,-179 28,-13 79,-35 114,-48 35,-12 59,-25 53,-27 -21,-7 -346,108 -387,137 -54,37 -275,154 -282,148 -5,-6 75,-51 202,-116 102,-51 84,-52 -40,-1 -136,55 -227,113 -465,295 -99,76 -159,110 -252,141 -43,14 -78,28 -78,31 0,7 39,-3 170,-44 z m 3966,19 c -17,-16 -18,-16 -5,5 7,12 15,20 18,17 3,-2 -3,-12 -13,-22 z m -3304,-32 10,-25 13,30 c 7,17 14,26 14,22 1,-4 -6,-24 -15,-45 l -16,-37 -14,45 c -13,43 -18,81 -7,50 3,-8 10,-26 15,-40 z m 2098,20 c 28,15 35,-6 8,-24 -29,-21 -35,-20 -48,4 -13,25 -2,50 12,26 7,-12 14,-14 28,-6 z m 1107,-122 c -2,-29 -3,-8 -3,47 0,55 1,79 3,53 2,-26 2,-71 0,-100 z m -3554,107 c -7,-21 -13,-19 -13,6 0,11 4,18 10,14 5,-3 7,-12 3,-20 z m 3467,-55 c 0,-8 -9,-1 -19,16 -11,18 -24,35 -30,38 -6,4 -11,13 -11,19 1,18 60,-54 60,-73 z m -892,50 c 22,-18 23,-22 11,-50 -13,-27 -17,-29 -59,-27 -39,3 -45,6 -43,24 3,23 42,73 58,72 6,0 21,-8 33,-19 z m 1055,-14 c -10,-13 -22,-22 -26,-19 -9,6 21,43 35,43 5,0 1,-11 -9,-24 z m -117,-43 c -8,-9 -35,10 -39,29 -5,19 -5,19 19,-3 13,-12 22,-24 20,-26 z m -110,29 c 10,-6 34,-45 34,-55 0,-10 -54,3 -68,16 -27,27 2,61 34,39 z m -686,-28 c 0,-37 16,-61 53,-81 18,-9 26,-18 20,-20 -16,-6 -17,-72 -2,-110 l 12,-28 14,40 13,40 -6,-40 c -11,-66 -3,-177 14,-215 12,-26 16,-66 16,-155 -1,-89 1,-107 7,-70 4,29 5,5 2,-60 -8,-173 -21,-145 -22,46 -1,130 -5,186 -17,222 -21,63 -128,225 -156,236 -13,5 -61,14 -108,21 -47,6 -102,14 -122,16 -21,3 -38,11 -38,18 0,22 -38,50 -52,39 -7,-6 -30,-11 -50,-11 -42,-2 -50,17 -24,53 12,17 17,18 41,7 15,-7 35,-10 45,-7 10,3 21,1 25,-5 4,-6 15,-8 25,-5 10,3 21,1 25,-5 5,-8 11,-8 20,0 10,8 19,8 34,-2 24,-14 27,-27 9,-30 -7,0 -17,-2 -23,-3 -5,0 -23,-8 -40,-18 l -30,-16 35,-1 c 19,0 64,-7 100,-15 36,-8 75,-14 88,-15 22,0 22,1 -8,42 -16,22 -30,45 -30,51 0,5 15,-13 33,-39 19,-27 38,-49 43,-50 28,-3 48,-22 74,-73 16,-31 39,-69 50,-86 l 22,-30 -7,54 c -3,30 -13,67 -21,82 -7,15 -14,35 -14,43 0,8 -20,31 -45,52 -25,20 -45,41 -45,46 0,6 19,-8 43,-31 l 42,-41 3,26 c 3,20 -6,37 -36,68 -47,48 -60,86 -31,86 14,0 19,-7 19,-26 z m -653,-156 c -2,-35 -3,-9 -3,57 0,66 1,94 3,63 2,-32 2,-86 0,-120 z m -466,153 c 118,-11 159,-29 159,-72 0,-17 5,-39 10,-50 16,-30 -3,-23 -39,15 -66,69 -176,66 -336,-8 -43,-20 -83,-36 -90,-36 -7,0 -15,14 -19,31 -9,46 16,84 66,103 71,26 115,29 249,17 z m 1056,-13 38,-23 -28,-3 c -27,-3 -67,20 -67,40 0,13 17,9 57,-14 z m 970,-70 c -2,-18 -4,-4 -4,32 0,36 2,50 4,33 2,-18 2,-48 0,-65 z m -507,55 c 0,-10 6,-13 16,-9 21,8 94,-12 94,-26 0,-5 -9,-8 -20,-5 -11,3 -27,-1 -34,-9 -19,-19 -27,-18 -24,4 2,9 -4,17 -12,18 -19,1 -51,14 -69,28 -11,9 -9,12 10,17 29,7 39,3 39,-18 z m -191,-12 c 9,-6 22,-6 34,1 25,13 34,2 19,-22 -11,-17 -8,-23 23,-42 41,-27 42,-32 13,-52 -23,-16 -108,-22 -108,-8 0,20 23,31 40,19 25,-15 56,9 39,29 -6,8 -15,11 -21,8 -5,-3 -15,0 -23,6 -8,7 -15,9 -15,4 0,-5 -5,-1 -11,9 -5,9 -19,17 -30,17 -17,0 -18,3 -9,20 12,22 27,25 49,11 z m -2084,-27 c 215,-37 418,-138 620,-308 30,-25 30,-26 8,-32 -30,-8 -29,-25 2,-54 14,-13 25,-27 25,-30 0,-4 -46,-10 -102,-13 -67,-3 -144,-16 -220,-36 -130,-34 -154,-37 -195,-19 -27,12 -279,172 -296,188 -12,11 182,-33 309,-70 65,-19 139,-33 184,-35 l 75,-4 -55,10 c -30,6 -118,28 -195,49 -77,22 -180,48 -230,60 -85,20 -93,24 -150,79 -33,32 -74,67 -91,79 -40,28 -180,83 -267,106 -37,10 -65,21 -62,25 4,3 66,11 138,18 158,14 378,8 502,-13 z m 829,-14 c 14,-5 43,-32 65,-60 31,-40 40,-57 35,-76 -4,-15 -2,-24 5,-24 6,0 11,-4 11,-9 0,-4 -11,-6 -25,-3 -14,2 -25,8 -25,13 0,5 -7,9 -15,9 -9,0 -29,10 -44,21 -16,12 -34,18 -40,15 -7,-4 -11,1 -11,13 0,12 -6,21 -13,21 -8,0 -19,12 -26,26 -15,33 -35,26 -41,-15 -5,-30 -6,-31 -25,-18 -17,13 -21,13 -33,-4 -16,-23 1,-64 24,-55 9,3 14,-1 14,-14 0,-20 0,-20 -50,0 -28,11 -76,33 -107,49 l -57,28 41,21 c 116,60 254,86 317,62 z m 1796,-30 c 14,-18 22,-20 52,-15 34,6 38,5 54,-27 14,-25 19,-29 22,-15 5,23 39,22 47,-2 9,-29 -25,-93 -47,-88 -10,3 -21,1 -24,-5 -4,-6 -9,-5 -14,3 -7,10 -11,10 -24,0 -14,-12 -16,-8 -17,35 -1,43 -2,45 -9,19 -4,-16 -8,-24 -9,-17 0,7 -5,11 -10,8 -5,-3 -12,10 -15,29 -6,32 -26,50 -26,24 0,-5 -4,-7 -10,-4 -16,10 -12,-38 6,-63 8,-12 13,-28 11,-35 -3,-7 -9,-1 -15,13 l -10,25 -10,-25 c -6,-14 -11,-19 -11,-12 -1,6 -5,12 -9,12 -5,0 -6,-14 -4,-31 3,-22 1,-30 -7,-25 -6,4 -11,15 -11,24 -1,15 -2,15 -15,-2 -15,-19 -15,-19 -15,2 0,26 -15,29 -25,5 -5,-15 -9,-13 -19,12 -10,25 -13,27 -19,12 -4,-10 -11,-16 -16,-13 -5,3 -14,-9 -20,-27 -9,-25 -14,-29 -21,-17 -8,12 -10,12 -10,1 0,-11 -3,-11 -15,-1 -12,10 -15,10 -15,-1 -1,-10 -4,-9 -14,3 -9,12 -16,14 -23,7 -20,-20 -33,1 -33,50 0,57 17,76 59,68 24,-5 33,0 56,29 21,26 35,34 59,34 17,0 44,9 60,19 38,25 93,21 116,-9 z m -4224,-5 c 3,-8 -3,-30 -15,-48 -12,-19 -21,-44 -21,-57 0,-20 -46,-80 -61,-80 -4,0 -10,7 -13,16 -8,20 11,44 34,44 10,0 20,9 23,20 3,13 0,20 -9,20 -16,0 -19,26 -4,35 15,9 12,25 -5,25 -15,0 -21,21 -8,33 13,13 74,7 79,-8 z m 1926,-21 c 88,-32 253,-114 288,-143 21,-17 22,-20 7,-21 -14,0 -17,-5 -12,-20 9,-28 -8,-25 -47,8 -52,44 -145,102 -246,154 -103,54 -100,61 10,22 z M 550,2969 c -13,-44 -20,-48 -20,-12 0,30 6,43 21,43 4,0 4,-14 -1,-31 z m 445,-118 c 123,-36 130,-39 127,-61 -2,-14 -11,-29 -19,-36 -11,-7 -14,-20 -11,-38 4,-20 2,-26 -8,-22 -7,3 -16,0 -20,-5 -4,-6 -15,-2 -30,12 -13,12 -21,26 -18,31 4,5 -4,8 -17,6 -18,-2 -24,3 -31,30 -10,38 -25,42 -34,7 -3,-13 -12,-29 -20,-36 -10,-8 -12,-22 -8,-48 6,-31 5,-34 -8,-24 -8,7 -19,9 -23,5 -5,-4 -5,-1 -1,6 4,7 4,36 0,65 -7,47 -8,49 -14,22 -6,-28 -7,-27 -14,17 -4,26 -12,50 -17,54 -10,6 -8,-18 10,-106 4,-19 5,-46 1,-60 -6,-24 -7,-23 -13,9 -4,18 -7,46 -7,61 0,26 -21,46 -34,33 -3,-4 -6,-22 -6,-42 l -1,-36 -24,28 c -29,33 -35,34 -35,5 0,-21 -2,-20 -33,10 -41,40 -47,40 -47,2 0,-30 -13,-40 -25,-19 -4,6 -13,8 -20,5 -7,-2 -18,1 -24,7 -8,8 -11,6 -11,-7 0,-12 -5,-16 -17,-12 -58,17 -68,16 -80,-3 -15,-23 -12,-26 42,-36 l 40,-8 -40,-18 c -53,-24 -65,-24 -65,4 0,13 -9,32 -20,42 -30,28 -24,43 23,56 85,22 138,78 91,96 -13,5 -10,11 13,35 21,22 28,39 28,71 v 42 l 145,-53 c 80,-29 204,-70 275,-91 z m 3102,127 c -3,-8 -6,-5 -6,6 -1,11 2,17 5,13 3,-3 4,-12 1,-19 z m -2496,-7 c 99,-34 230,-110 189,-110 -29,0 -156,55 -210,92 -62,42 -57,45 21,18 z M 361,2933 c -9,-16 -10,-16 -11,-1 0,9 3,25 7,35 7,16 8,17 11,1 2,-10 -1,-25 -7,-35 z m 4726,25 c 30,-28 29,-42 -2,-34 -16,4 -25,2 -25,-5 0,-6 -7,-9 -15,-5 -10,3 -15,-1 -15,-11 0,-14 -2,-14 -20,2 -25,22 -27,47 -3,38 12,-5 15,-2 10,9 -13,35 35,39 70,6 z m -1532,-8 c 3,-5 1,-10 -4,-10 -6,0 -11,5 -11,10 0,6 2,10 4,10 3,0 8,-4 11,-10 z m 108,4 c 3,-4 2,-15 -4,-25 -8,-16 -14,-17 -30,-8 -15,8 -24,8 -32,0 -6,-6 -22,-11 -36,-11 -24,0 -24,0 -5,21 10,11 26,18 35,16 9,-3 23,-1 30,4 17,10 33,11 42,3 z m -443,-66 c 35,-78 39,-80 111,-68 104,16 319,8 319,-12 0,-6 -55,-8 -142,-4 -151,5 -166,2 -35,-9 42,-4 77,-10 77,-14 0,-5 -52,-11 -115,-15 -86,-5 -119,-4 -135,6 -17,11 -22,11 -29,-1 -6,-9 -11,-10 -15,-2 -5,8 -13,8 -26,1 -20,-11 -30,4 -30,45 0,13 -4,26 -9,29 -14,9 -73,-94 -68,-116 5,-16 3,-17 -9,-7 -19,16 -18,33 6,54 16,14 19,26 14,52 -4,20 -2,33 4,33 6,0 16,16 22,35 15,47 37,44 60,-7 z m 597,-10 c -2,-13 -4,-5 -4,17 -1,22 1,32 4,23 2,-10 2,-28 0,-40 z m 383,37 c 0,-8 -4,-15 -10,-15 -5,0 -10,7 -10,15 0,8 5,15 10,15 6,0 10,-7 10,-15 z m -463,-59 c -2,-71 -17,-67 -17,5 0,39 5,59 16,59 1,0 1,-29 1,-64 z m -3380,22 c -3,-8 -6,-5 -6,6 -1,11 2,17 5,13 3,-3 4,-12 1,-19 z m 2590,2 c 8,-12 9,-21 3,-25 -6,-3 -10,-15 -10,-26 0,-28 -18,-24 -26,6 -3,14 -11,25 -17,25 -5,0 -2,9 8,20 22,25 27,25 42,0 z m -182,-22 c 14,-6 25,-17 25,-25 0,-15 -17,-8 -55,21 -24,18 -7,21 30,4 z M 379,2741 c 1,-77 -5,-60 -11,29 -3,42 -2,64 2,50 4,-14 8,-49 9,-79 z m 2604,62 c 2,-21 0,-46 -4,-55 -5,-9 -9,-29 -10,-45 l -1,-28 -9,30 c -5,17 -6,39 -2,50 5,18 4,18 -11,6 -13,-11 -12,-6 5,23 18,32 20,39 8,47 -11,7 -11,9 2,9 12,0 18,-11 22,-37 z m -1664,0 c 9,-15 12,-16 20,-4 7,10 12,7 23,-15 13,-27 12,-31 -16,-65 -17,-20 -37,-58 -46,-85 l -16,-47 2,94 c 1,52 -2,101 -7,110 -16,31 23,42 40,12 z m -99,-15 c 12,-14 17,-32 13,-45 -3,-14 -1,-23 6,-23 6,0 11,-10 11,-22 0,-19 -2,-20 -10,-8 -7,11 -10,5 -11,-25 -1,-22 -4,-31 -6,-20 -3,11 -21,38 -39,61 -37,44 -43,64 -20,64 8,0 18,9 21,20 8,25 13,25 35,-2 z m 1669,-55 17,-68 h 37 c 20,0 37,-3 37,-7 0,-4 12,-14 28,-22 15,-8 24,-15 20,-16 -3,0 0,-21 8,-47 16,-54 17,-63 5,-63 -5,0 -12,18 -16,41 -10,57 -41,89 -90,93 -39,4 -40,4 -51,57 -6,30 -15,68 -19,84 -4,17 -5,27 0,23 4,-3 15,-37 24,-75 z m -2619,31 c 0,-14 -4,-23 -9,-20 -5,3 -11,-12 -15,-33 -3,-24 -13,-41 -23,-46 -15,-5 -16,-4 -5,6 13,14 17,49 4,49 -4,0 -13,-5 -20,-12 -9,-9 -12,-9 -12,1 0,17 62,89 73,84 4,-2 7,-15 7,-29 z m 1280,-10 c 162,-70 401,-150 548,-183 74,-17 200,-53 281,-81 149,-51 249,-70 379,-70 34,0 62,-4 62,-9 0,-9 -50,-30 -120,-51 -31,-9 -29,-9 20,-4 30,3 80,17 110,32 l 55,27 h 410 l 410,1 86,32 c 66,24 255,72 285,72 2,0 4,-12 4,-26 0,-40 -18,-64 -47,-64 -69,0 -291,-57 -481,-124 -114,-41 -228,-77 -252,-81 -25,-4 -79,-15 -122,-26 -86,-21 -102,-23 -94,-10 4,5 -17,14 -45,20 -135,29 -254,41 -518,53 -255,12 -275,14 -186,19 217,14 419,9 679,-16 142,-14 264,-24 270,-22 29,10 -79,29 -294,52 -397,44 -513,50 -715,36 -238,-15 -323,-14 -399,5 -49,12 -66,21 -75,40 -12,26 -27,31 -34,12 -3,-10 -9,-8 -24,5 -11,9 -25,17 -31,17 -7,0 -12,11 -12,25 0,14 -4,25 -9,25 -6,0 -11,15 -13,33 -4,37 -18,40 -35,6 -12,-22 -13,-20 -14,26 l -1,50 -11,-32 c -15,-39 -47,-75 -47,-53 -1,12 -3,12 -14,-2 -11,-15 -14,-14 -30,13 -13,23 -21,27 -31,19 -9,-7 -15,-6 -23,3 -18,22 7,77 35,77 26,0 58,39 43,54 -6,6 -10,20 -10,33 0,13 -7,26 -15,29 -8,4 -15,12 -15,19 0,23 -21,28 -35,9 -13,-18 -14,-17 -24,9 -11,27 -14,47 -8,47 1,0 49,-21 107,-46 z m 1480,42 c 0,-2 -8,-10 -17,-17 -16,-13 -17,-12 -4,4 13,16 21,21 21,13 z m 33,-23 c -6,-15 -19,-17 -27,-4 -7,11 0,18 18,18 8,0 12,-6 9,-14 z m 590,-20 c -33,-13 -7,-22 47,-16 57,5 60,5 60,-16 0,-11 5,-21 10,-21 6,0 10,9 10,20 0,15 7,20 28,20 29,0 206,-27 234,-36 20,-6 38,-62 38,-121 0,-36 -3,-43 -22,-48 -13,-2 -75,-17 -138,-32 -87,-21 -141,-28 -220,-28 h -105 l 3,33 c 2,18 -1,32 -7,32 -6,0 -11,10 -11,21 0,17 -3,19 -14,10 -16,-14 -19,-11 -36,43 l -13,40 -18,-23 c -11,-13 -19,-39 -19,-58 0,-19 -4,-32 -9,-29 -5,3 -12,-1 -15,-10 -3,-8 -10,-12 -16,-9 -5,3 -10,1 -10,-6 0,-8 -4,-8 -16,2 -13,10 -17,10 -24,0 -6,-11 -11,-9 -20,8 -8,15 -17,20 -30,16 -13,-4 -20,0 -25,15 -13,40 -45,17 -45,-33 v -20 l -23,21 c -25,24 -37,20 -37,-10 0,-10 -4,-18 -10,-18 -5,0 -10,-6 -10,-13 0,-8 -12,-14 -30,-14 -22,0 -30,5 -30,18 0,11 -9,19 -25,21 -23,3 -18,9 54,74 74,67 87,74 188,108 139,46 217,64 273,64 25,0 39,-2 33,-5 z M 340,2689 c 0,-36 -3,-40 -21,-37 -12,2 -27,11 -33,21 -9,15 -7,22 13,38 34,28 41,24 41,-22 z m 632,-44 c 3,-22 -2,-45 -9,-45 -5,0 -9,28 -10,63 -1,55 0,58 8,27 6,-19 10,-39 11,-45 z m 3307,39 c 2,-2 -17,-4 -43,-4 -30,0 -45,4 -41,10 6,9 72,4 84,-6 z M 800,2659 c 0,-11 -4,-17 -10,-14 -5,3 -10,15 -10,26 0,11 5,17 10,14 6,-3 10,-15 10,-26 z m 400,12 c 5,-11 10,-24 10,-30 0,-17 -17,-13 -24,7 -3,9 -9,23 -12,30 -9,20 14,14 26,-7 z m 142,-23 c -10,-22 -11,-21 -11,12 -1,26 2,31 11,22 8,-8 8,-17 0,-34 z m 128,12 c 0,-10 -6,-20 -13,-23 -10,-4 -12,3 -9,24 5,31 22,30 22,-1 z m -849,-16 c 81,-28 437,-124 612,-163 170,-38 351,-90 344,-97 -2,-3 -35,0 -73,6 -38,5 -87,9 -109,9 -38,-1 -37,-2 15,-11 30,-5 165,-30 300,-54 135,-25 313,-54 396,-64 83,-11 189,-29 235,-40 101,-24 139,-26 94,-4 -29,14 -27,15 35,9 61,-6 267,-57 298,-74 17,-10 -117,-21 -251,-21 -94,0 -376,46 -674,110 -121,26 -331,60 -363,59 -14,0 56,-16 155,-34 356,-66 785,-157 785,-166 0,-3 -70,-10 -155,-16 -153,-12 -156,-11 -227,13 -188,64 -618,139 -851,149 -135,6 -152,-6 -27,-20 127,-13 427,-57 530,-76 157,-30 360,-80 360,-89 0,-4 -28,-10 -62,-13 -48,-3 -74,0 -107,14 -60,26 -65,23 -11,-6 l 45,-24 -43,-1 c -23,0 -59,8 -80,19 -61,31 -91,34 -38,4 63,-36 39,-42 -52,-12 -99,32 -103,32 -37,0 56,-28 58,-30 28,-30 -51,-1 -131,19 -192,49 -31,15 -92,39 -137,53 -95,30 -366,87 -415,87 -25,0 -30,3 -19,10 12,8 13,13 3,30 -7,11 -13,30 -14,42 0,13 -6,39 -14,58 -14,37 -13,37 -36,-40 -7,-25 -17,-50 -22,-57 -5,-7 -6,-17 -2,-23 9,-14 -36,-12 -115,5 -64,13 -85,12 -75,-5 5,-8 53,-19 146,-34 20,-4 36,-12 36,-19 0,-6 4,-24 8,-39 7,-28 -7,-40 -20,-18 -10,16 -25,1 -25,-26 0,-13 9,-29 20,-36 30,-19 24,-27 -15,-21 -40,6 -42,0 -15,-44 13,-22 16,-34 8,-39 -7,-5 -5,-12 7,-21 11,-7 17,-13 14,-14 -2,0 -32,-1 -65,-2 l -62,-2 19,24 c 11,13 19,32 19,43 0,19 -1,19 -35,-2 -27,-17 -44,-20 -70,-16 -39,8 -53,22 -36,39 19,19 12,27 -27,27 -25,0 -45,7 -55,18 -20,22 -50,92 -39,92 4,0 14,-16 21,-35 18,-50 36,-56 105,-37 44,12 56,19 53,32 -3,12 6,21 28,29 18,6 39,19 47,28 12,15 8,16 -45,9 -56,-6 -58,-6 -47,15 12,22 6,54 -9,45 -5,-4 -11,-1 -13,6 -3,9 -15,4 -37,-15 -18,-15 -40,-27 -49,-27 -9,0 -45,-21 -80,-46 l -62,-47 v -118 c 0,-73 4,-119 10,-119 16,0 12,-118 -6,-152 -9,-17 -19,-69 -24,-115 -4,-46 -13,-90 -20,-96 -10,-10 -11,-5 -6,25 17,98 26,333 22,628 -4,294 -1,294 13,-2 0,-16 5,-28 11,-28 5,0 33,20 62,45 29,25 79,58 111,74 31,16 63,34 70,39 9,8 27,7 61,-3 46,-14 96,-11 96,5 0,4 -25,10 -55,12 -30,3 -57,7 -60,9 -2,3 7,33 21,67 16,40 24,76 22,100 -3,33 -5,35 -13,15 -11,-23 -86,-93 -122,-111 -31,-17 -168,-28 -159,-14 13,21 65,43 89,37 27,-7 87,36 87,63 0,12 -3,13 -12,4 -17,-17 -38,-15 -38,3 0,23 -25,28 -57,11 -44,-22 -58,-43 -43,-61 19,-23 6,-28 -20,-7 l -22,18 27,32 c 34,41 74,62 117,62 36,0 82,26 73,40 -3,5 -22,2 -41,-6 l -36,-15 19,28 c 11,15 23,41 26,58 l 5,29 -28,-34 c -16,-19 -32,-31 -36,-27 -6,5 42,67 52,67 1,0 21,-7 45,-16 z m 642,-39 c 4,-32 3,-43 -3,-30 -8,19 -14,93 -6,84 2,-2 6,-26 9,-54 z m 1807,51 c 0,-2 -8,-10 -17,-17 -16,-13 -17,-12 -4,4 13,16 21,21 21,13 z m 1224,-6 c 14,-5 26,-16 26,-24 0,-19 -69,-80 -120,-106 l -40,-20 v 26 c 0,40 32,123 50,128 28,7 59,6 84,-4 z M 835,2630 c 3,-5 1,-10 -4,-10 -6,0 -11,5 -11,10 0,6 2,10 4,10 3,0 8,-4 11,-10 z m 2041,-13 c -10,-7 -32,-23 -47,-35 -16,-13 -27,-18 -24,-10 7,16 65,58 80,57 5,0 2,-6 -9,-12 z M 168,2535 c 12,9 28,30 35,46 l 12,30 39,-40 c 22,-22 37,-44 33,-47 -4,-4 -13,-2 -20,4 -8,7 -17,9 -20,5 -12,-12 -7,-50 8,-63 10,-9 15,-31 15,-73 0,-75 -26,-132 -79,-175 -25,-20 -41,-43 -44,-59 -2,-16 -4,-1 -5,32 0,36 3,51 7,36 6,-23 8,-22 48,22 50,54 63,92 39,110 -16,11 -16,15 -2,42 21,40 2,61 -22,26 -10,-14 -25,-34 -34,-45 l -17,-21 -1,21 c 0,11 15,38 33,60 32,37 56,104 38,104 -5,0 -23,-11 -39,-25 -17,-14 -35,-25 -42,-25 -9,0 -11,-22 -6,-87 4,-57 2,-81 -3,-68 -5,11 -9,79 -9,150 1,84 3,111 7,77 6,-52 6,-53 29,-37 z m 945,56 c 3,-13 1,-18 -8,-14 -19,7 -27,33 -11,33 8,0 16,-9 19,-19 z m 77,-24 c 0,-5 -4,-5 -10,-2 -5,3 -10,14 -10,23 0,15 2,15 10,2 5,-8 10,-19 10,-23 z m 1505,9 c -16,-12 -17,-16 -6,-30 7,-9 19,-16 27,-16 7,0 15,-8 19,-19 5,-16 19,-19 93,-23 59,-3 97,-1 119,9 18,7 40,13 50,13 10,0 -13,-14 -52,-31 -70,-30 -71,-30 -220,-26 -130,3 -161,7 -235,31 -96,31 -119,46 -75,46 41,1 246,38 214,39 -15,1 -66,-6 -114,-14 -48,-9 -90,-14 -92,-12 -13,13 269,62 286,50 3,-2 -4,-9 -14,-17 z m -1539,-13 c -10,-10 -19,5 -10,18 6,11 8,11 12,0 2,-7 1,-15 -2,-18 z m 218,21 c 20,-8 21,-24 2,-24 -7,0 -17,-10 -20,-22 l -7,-23 -10,24 c -16,41 -2,59 35,45 z m 3426,-65 c 0,-6 -4,-7 -10,-4 -5,3 -10,11 -10,16 0,6 5,7 10,4 6,-3 10,-11 10,-16 z m -206,-15 c 3,-9 6,-25 6,-36 0,-11 9,-31 20,-45 24,-30 26,-17 5,23 -17,33 -20,68 -5,59 11,-6 60,-102 60,-116 0,-15 -39,-4 -63,19 -13,12 -28,22 -34,22 -17,0 -36,27 -23,35 5,3 10,17 10,31 0,27 15,32 24,8 z m 193,-36 c -3,-7 -5,-2 -5,12 0,14 2,19 5,13 2,-7 2,-19 0,-25 z m -87,10 c 0,-7 -5,-20 -10,-28 -8,-12 -10,-9 -10,13 0,15 5,27 10,27 6,0 10,-6 10,-12 z m 77,-50 c -3,-8 -6,-5 -6,6 -1,11 2,17 5,13 3,-3 4,-12 1,-19 z M 89,2404 c 23,-38 24,-59 4,-46 -16,10 -46,82 -34,82 5,0 19,-16 30,-36 z m 4451,16 c 0,-13 71,-80 86,-80 7,0 10,-8 7,-20 -3,-12 2,-29 12,-40 10,-11 14,-20 9,-20 -25,0 -252,-31 -305,-41 -91,-18 -63,-22 35,-4 48,8 135,18 194,21 l 108,7 27,-32 c 57,-68 83,-65 -480,-58 -296,4 -502,3 -493,-2 15,-9 531,-30 823,-34 l 147,-2 -134,-53 -134,-54 -189,11 c -104,6 -242,11 -308,11 -179,0 -409,12 -393,21 22,12 153,27 348,40 102,6 192,16 200,20 42,23 -376,-5 -495,-33 -81,-19 -126,-22 -431,-25 -188,-2 -358,1 -380,6 -27,6 39,9 224,10 150,1 271,5 282,11 10,5 55,21 101,35 67,21 75,25 39,21 -25,-3 -72,-15 -105,-26 -33,-11 -96,-23 -141,-27 -95,-7 -240,5 -227,18 14,14 269,88 375,109 92,19 152,18 164,-1 6,-10 203,-12 293,-3 41,5 61,11 61,20 0,9 -11,14 -30,14 -23,0 -30,5 -30,19 0,17 -4,18 -32,10 -48,-13 -60,7 -16,25 39,17 244,56 290,56 24,0 28,-4 28,-29 0,-33 -20,-54 -43,-45 -18,6 -83,-12 -92,-26 -3,-5 13,-3 36,5 61,22 70,17 19,-10 -63,-34 -42,-31 90,14 63,21 139,44 168,51 66,15 70,35 5,25 -27,-3 -58,-9 -70,-12 -18,-4 -23,-1 -23,15 0,19 7,21 63,24 l 62,3 -62,9 c -43,6 -63,13 -63,22 0,8 10,15 23,15 318,20 357,21 357,9 z m 61,-26 24,-27 -27,18 c -16,9 -28,21 -28,26 0,14 5,11 31,-17 z m -531,2 c 0,-9 -19,-16 -58,-20 -32,-4 -123,-20 -202,-36 -139,-29 -183,-32 -124,-9 69,26 293,75 362,78 12,1 22,-5 22,-13 z m 729,-15 c -15,-5 -22,6 -14,19 6,9 10,9 16,-1 5,-8 4,-15 -2,-18 z m -4482,4 c 8,-22 -6,-33 -17,-15 -13,20 -12,30 0,30 6,0 13,-7 17,-15 z m 4733,-36 25,-21 -31,6 c -23,3 -33,0 -43,-15 -10,-17 -9,-26 8,-55 26,-44 26,-44 -4,-44 -13,0 -67,-15 -119,-34 l -94,-33 -7,63 c -8,78 7,132 38,139 12,3 51,6 87,8 36,2 76,4 90,5 14,1 36,-8 50,-19 z m -344,-13 c 3,-13 4,-30 3,-37 -2,-8 2,-24 9,-36 8,-15 9,-23 2,-23 -6,0 -14,10 -19,23 -5,13 -16,29 -25,36 -16,14 -21,42 -9,54 14,14 33,6 39,-17 z m 56,-56 c -5,-58 -7,-68 -13,-45 -12,52 -10,113 4,118 6,2 13,4 13,3 1,0 -1,-35 -4,-76 z m -2222,24 c -82,-8 -328,-8 -323,-1 2,4 84,6 181,5 97,-1 161,-3 142,-4 z m -147,-61 c -7,-2 -19,-2 -25,0 -7,3 -2,5 12,5 14,0 19,-2 13,-5 z m 572,-34 c 73,-13 101,-33 35,-25 -25,3 -94,11 -155,16 -202,20 -235,30 -80,25 77,-3 167,-10 200,-16 z m 2052,-31 c -1,-17 4,-24 21,-26 33,-5 21,-26 -16,-30 -36,-4 -45,-34 -14,-51 14,-9 15,-12 3,-20 -12,-8 -12,-12 -2,-25 8,-9 10,-16 5,-16 -67,0 -312,-55 -513,-115 -172,-51 -339,-68 -446,-44 -70,14 -88,7 170,68 94,23 206,46 250,53 73,11 77,13 40,18 -38,5 -32,8 145,79 142,58 331,126 357,131 2,0 2,-10 0,-22 z m -3894,-28 c 78,-17 180,-42 227,-56 80,-24 242,-103 255,-124 11,-18 -63,-10 -142,15 -105,33 -111,31 -28,-9 l 70,-35 h -52 c -39,-1 -103,15 -239,59 -266,86 -282,76 -24,-15 200,-71 186,-65 170,-75 -30,-19 -146,-11 -217,15 -37,13 -69,22 -71,20 -2,-2 20,-16 50,-31 l 53,-28 -50,-7 c -83,-12 -111,-11 -97,3 20,20 14,40 -10,36 -24,-3 -25,1 -12,55 5,23 3,27 -15,27 -17,0 -21,6 -21,35 0,19 -5,35 -10,35 -6,0 -4,13 5,30 19,37 12,54 -17,39 -18,-10 -20,-9 -15,6 4,9 7,21 7,26 0,14 31,11 183,-21 z m 1804,23 c -20,-2 -52,-2 -70,0 -17,2 0,4 38,4 39,0 53,-2 32,-4 z M 234,2133 c -9,-35 -13,-43 -25,-43 -10,0 -13,53 -2,63 17,18 33,6 27,-20 z m 2561,-23 c -46,-12 -273,-12 -255,0 8,5 76,9 150,9 84,-1 124,-4 105,-9 z m -205,-39 c 0,-5 -53,-12 -117,-15 -65,-4 -212,-16 -327,-27 -187,-18 -229,-19 -215,-5 5,5 347,44 429,49 122,7 230,6 230,-2 z M 157,1958 c -2,-18 -4,-4 -4,32 0,36 2,50 4,33 2,-18 2,-48 0,-65 z m 94,42 24,-21 -33,6 -33,7 3,-54 c 3,-48 5,-53 28,-56 39,-6 50,-21 50,-66 -1,-44 -26,-252 -36,-299 -5,-23 -3,-29 15,-34 12,-3 24,-16 27,-29 8,-32 17,-30 48,7 32,38 46,30 46,-27 0,-40 -5,-49 -47,-89 -52,-50 -72,-58 -47,-20 15,23 15,25 0,25 -21,0 -20,16 1,25 16,6 16,8 -4,23 -12,9 -23,28 -25,42 -2,20 -8,25 -31,23 -33,-2 -57,-24 -57,-52 0,-14 -6,-21 -20,-21 -11,0 -20,2 -20,4 0,2 -3,11 -6,20 -4,10 -1,16 8,16 18,0 50,36 66,73 6,15 16,27 21,27 6,0 6,13 1,33 -7,28 -30,355 -30,430 0,33 18,35 51,7 z m 2927,-2 c -5,-15 -311,-24 -338,-11 -8,5 59,10 150,13 91,3 171,7 178,8 8,1 12,-4 10,-10 z m 312,3 c 0,-17 -219,-29 -257,-13 -11,4 15,9 67,13 144,9 190,9 190,0 z m 694,-8 c 58,-3 104,-8 101,-11 -9,-9 -729,-1 -745,8 -18,11 482,13 644,3 z m -2399,-13 c -3,-5 -33,-10 -66,-10 -33,0 -59,4 -59,10 0,6 29,10 66,10 41,0 63,-4 59,-10 z m 612,-12 c -3,-8 -6,-5 -6,6 -1,11 2,17 5,13 3,-3 4,-12 1,-19 z m -342,3 c -15,-15 -165,-26 -165,-13 0,6 26,13 63,15 34,2 73,4 87,5 15,1 20,-2 15,-7 z m 1950,-21 c -110,-12 -393,-11 -400,0 -4,7 75,9 232,8 163,-1 216,-3 168,-8 z m -1595,-61 c 0,-9 7,-30 15,-45 8,-16 15,-39 15,-51 0,-22 -3,-23 -105,-23 -58,0 -105,3 -105,8 0,4 6,17 14,28 8,11 16,36 19,55 3,27 4,25 5,-15 2,-58 10,-55 27,11 13,48 13,48 24,21 15,-39 26,-35 46,18 16,41 18,44 31,27 7,-10 14,-25 14,-34 z m 1059,37 c 20,-11 6,-14 -115,-19 -80,-4 -143,-2 -148,3 -13,13 24,19 124,23 47,2 92,4 100,5 8,1 26,-5 39,-12 z M 503,1912 c 26,-4 44,-18 34,-28 -6,-7 -107,17 -107,25 0,15 14,22 29,15 9,-4 28,-9 44,-12 z m 1067,-1 c 0,-12 -52,-21 -128,-21 -76,0 -76,9 0,20 76,11 128,11 128,1 z m -835,-41 c 13,0 16,-3 8,-11 -14,-14 -65,-7 -71,10 -4,10 1,12 19,8 13,-4 33,-7 44,-7 z m 1820,-57 c 6,-36 4,-43 -9,-43 -13,0 -16,12 -16,58 1,63 13,56 25,-15 z m -2095,39 c 0,-11 138,-32 215,-33 67,0 106,-11 87,-23 -22,-13 -13,-46 14,-56 21,-9 25,-15 22,-38 -3,-15 -9,-36 -13,-46 -6,-13 -5,-17 2,-13 6,4 18,4 27,1 21,-8 21,-67 1,-84 -8,-7 -15,-19 -15,-26 0,-8 -5,-14 -10,-14 -7,0 -7,7 0,21 16,28 6,49 -19,42 -12,-3 -21,-1 -21,6 0,5 -7,8 -15,5 -16,-6 -19,4 -9,30 3,9 10,13 15,10 15,-9 10,25 -7,51 -9,14 -26,25 -38,25 -12,0 -27,5 -33,11 -9,9 -18,8 -37,-5 -26,-16 -56,-22 -56,-9 0,3 7,15 17,25 19,21 10,37 -11,19 -12,-10 -14,-6 -13,21 2,31 0,33 -28,30 -43,-5 -51,-17 -37,-54 14,-39 7,-50 -14,-20 -19,28 -34,20 -34,-19 0,-16 -4,-29 -10,-29 -11,0 -14,100 -4,149 6,27 24,45 24,23 z m 896,1 c -8,-8 -89,-16 -266,-27 -110,-7 -104,1 13,19 91,14 265,19 253,8 z m -131,-33 c 3,-5 -1,-10 -9,-10 -9,0 -16,5 -16,10 0,6 4,10 9,10 6,0 13,-4 16,-10 z m -228,-41 c 9,-9 8,-17 -3,-34 -14,-21 -13,-25 12,-54 28,-34 19,-39 -26,-16 -33,17 -38,43 -17,88 13,30 18,32 34,16 z m 3123,1 c -8,-5 -33,-9 -55,-9 -31,0 -36,2 -20,9 29,13 94,13 75,0 z m -2663,-46 c -9,-9 -28,6 -21,18 4,6 10,6 17,-1 6,-6 8,-13 4,-17 z m 2523,6 c 0,-6 -43,-9 -112,-8 -92,1 -103,3 -58,8 89,11 170,11 170,0 z m -2619,-32 c 1,-7 0,-21 -1,-31 -1,-10 4,-24 10,-32 7,-8 7,-15 1,-19 -5,-4 -20,-27 -32,-51 -44,-87 -83,-32 -44,62 8,19 15,44 15,55 0,10 5,16 10,13 6,-3 10,-1 10,4 0,15 30,14 31,-1 z m -697,-35 c 5,-12 9,-14 18,-5 16,16 28,15 28,-2 0,-19 -29,-24 -67,-11 -26,9 -30,14 -21,23 17,17 35,15 42,-5 z m 3531,-19 c 28,-8 62,-14 77,-14 27,0 46,-16 34,-27 -7,-7 -148,24 -183,40 -13,6 -23,14 -23,19 0,5 10,6 23,2 12,-4 45,-13 72,-20 z M 565,1597 c -1,-18 3,-23 9,-17 21,21 38,11 31,-17 -9,-37 -11,-38 -41,-23 -19,11 -24,19 -19,37 7,29 -6,30 -24,1 -13,-20 -14,-21 -24,-3 -8,15 -5,22 13,37 32,26 55,19 55,-15 z m 3938,-13 c 83,-14 160,-30 169,-35 9,-5 41,-9 70,-10 71,0 136,-12 121,-22 -20,-13 -507,63 -526,82 -15,15 -9,15 166,-15 z M 890,1554 c 0,-12 6,-15 22,-11 29,8 289,-25 457,-58 138,-27 311,-74 350,-94 22,-12 22,-13 5,-32 -11,-12 -30,-19 -53,-19 -54,0 -20,-17 64,-31 117,-19 614,-127 710,-155 100,-28 205,-72 205,-85 0,-15 -43,-9 -115,16 -69,24 -70,19 -3,-19 62,-35 11,-27 -110,19 -67,25 -127,45 -134,45 -7,0 34,-24 92,-53 l 105,-52 -42,-3 c -26,-2 -68,7 -115,23 -188,68 -384,135 -398,135 -8,0 46,-30 120,-68 148,-74 250,-136 250,-152 0,-22 -58,-8 -143,36 -49,25 -91,43 -94,40 -3,-2 21,-19 53,-36 57,-30 58,-31 22,-26 -21,3 -76,30 -134,66 -132,83 -220,127 -338,166 -134,45 -145,42 -21,-5 95,-36 245,-107 245,-115 0,-2 -8,-2 -17,0 -91,20 -446,85 -512,94 -97,13 -119,7 -34,-10 143,-27 430,-103 515,-136 128,-49 248,-113 248,-131 0,-24 -69,-12 -183,31 -121,45 -152,43 -39,-3 90,-37 108,-51 64,-51 -40,0 -116,28 -255,94 -64,31 -121,56 -125,56 -4,0 45,-28 110,-63 64,-34 127,-70 140,-80 l 23,-18 -35,5 c -19,3 -93,35 -164,71 -92,48 -132,63 -139,56 -7,-7 -7,-11 -1,-11 6,0 19,-6 30,-14 12,-9 -13,-5 -66,11 -95,29 -110,38 -110,63 0,22 -45,30 -104,19 -25,-5 -53,-4 -73,4 -28,9 -33,16 -33,43 0,42 -16,51 -39,23 -16,-20 -21,-21 -35,-10 -9,7 -23,11 -31,7 -8,-3 -15,-1 -15,4 0,6 -6,10 -13,10 -7,0 -20,15 -28,34 l -16,34 43,31 c 44,31 65,74 46,93 -7,7 -16,6 -30,-1 -31,-16 -32,-3 -6,48 28,53 22,90 -16,111 -17,9 -20,8 -20,-9 0,-11 -14,-27 -35,-40 -32,-19 -35,-19 -35,-3 0,21 -19,42 -38,42 -7,0 -20,7 -29,16 -23,22 -2,64 32,64 16,0 25,-6 25,-16 z m -127,-87 c 2,-6 11,-6 24,2 33,17 43,13 43,-16 0,-42 -15,-60 -34,-44 -13,11 -20,9 -44,-8 l -30,-21 -6,40 c -3,22 -10,39 -14,37 -4,-1 -8,1 -9,6 -7,18 -1,28 20,36 21,9 40,-3 50,-32 z m -179,-32 c 16,19 16,19 14,-9 -3,-28 2,-33 52,-56 28,-13 16,-44 -24,-67 -33,-18 -43,-31 -54,-70 -17,-60 -37,-83 -29,-33 4,19 9,45 13,58 5,18 2,22 -15,22 -31,0 -86,-25 -111,-50 -31,-31 -35,-18 -5,18 21,25 36,32 83,37 55,7 136,37 148,56 3,5 -6,13 -20,18 -13,6 -44,25 -69,43 -24,18 -52,38 -62,44 -13,7 -16,16 -12,29 7,16 12,13 41,-21 34,-38 35,-39 50,-19 z m 329,-69 c 20,7 23,-15 5,-38 -13,-16 -71,-31 -81,-21 -9,8 12,45 22,38 5,-2 11,5 15,18 4,16 8,19 14,9 5,-7 16,-10 25,-6 z m -84,-130 c 13,-32 37,-39 53,-15 12,18 15,19 33,5 20,-14 20,-15 -4,-40 -29,-31 -38,-32 -66,-6 l -22,20 -18,-20 c -22,-25 -51,-26 -59,-3 -6,14 -9,15 -15,4 -5,-7 -14,-10 -20,-7 -16,10 -14,26 3,26 8,0 18,9 21,20 7,24 23,26 31,5 9,-22 21,-18 28,10 8,31 24,32 35,1 z m 1851,-20 c 14,-2 -40,-3 -120,-3 -80,0 -127,3 -105,6 38,6 170,4 225,-3 z M 1077,1012 c 284,-66 573,-144 556,-149 -7,-3 -35,3 -64,11 -76,23 -82,19 -20,-12 122,-60 46,-53 -184,17 -117,36 -140,31 -35,-7 109,-40 170,-70 170,-85 0,-14 -46,0 -324,93 -179,60 -295,106 -371,145 l -110,57 60,-5 c 33,-3 178,-32 322,-65 z m 1775,46 c -23,-8 -39,-8 -55,0 -19,9 -13,11 33,10 53,0 54,-1 22,-10 z M 160,615 c -11,-33 -10,-38 9,-52 26,-18 17,-37 -13,-29 -18,4 -26,-1 -39,-29 -14,-29 -14,-33 -2,-28 8,3 26,2 40,-1 40,-10 18,-29 -25,-23 -42,5 -48,-2 -70,-82 -13,-49 -35,-56 -25,-8 4,17 21,57 39,87 36,61 51,99 60,149 6,34 25,66 33,57 3,-3 0,-21 -7,-41 z m -52,8 c -2,-11 -12,-17 -23,-16 -19,1 -18,0 3,-17 24,-20 30,-50 9,-50 -36,0 -49,51 -20,82 20,23 36,23 31,1 z M 417,444 c 2,-7 12,-10 22,-7 11,3 30,-1 42,-8 13,-7 27,-12 32,-11 4,1 7,-5 7,-13 0,-9 9,-15 23,-15 14,0 32,-12 46,-31 18,-24 25,-28 37,-18 12,9 12,6 2,-22 -14,-44 -13,-42 -37,-29 -19,9 -21,8 -21,-14 0,-20 -6,-25 -37,-28 -21,-3 -49,-1 -63,5 -24,9 -22,10 25,24 62,19 74,28 68,54 -6,21 -12,21 -73,3 -23,-7 -24,-6 -11,10 20,24 -1,45 -24,26 -14,-11 -18,-11 -25,-1 -10,18 -30,5 -30,-19 0,-10 -4,-22 -10,-25 -5,-3 -10,4 -10,16 0,18 -2,19 -15,9 -11,-9 -15,-9 -15,-1 0,7 -8,11 -17,9 -10,-1 -24,1 -32,6 -9,6 -17,4 -22,-6 -9,-15 -64,-13 -74,3 -8,12 27,49 47,49 11,0 18,8 18,20 0,23 10,26 28,8 10,-10 15,-10 21,1 5,7 13,11 19,7 6,-3 13,-3 16,2 7,12 59,9 63,-4 z m 2211,-63 c 3,-8 -1,-12 -9,-9 -7,2 -15,10 -17,17 -3,8 1,12 9,9 7,-2 15,-10 17,-17 z m -38,-30 c 5,-17 5,-31 0,-31 -10,0 -20,26 -20,52 0,28 8,19 20,-21 z m 150,10 c 0,-6 -4,-13 -10,-16 -5,-3 -10,1 -10,9 0,9 5,16 10,16 6,0 10,-4 10,-9 z m 93,-55 c 3,-7 10,-6 21,4 16,13 18,12 14,-9 -2,-15 -15,-28 -36,-37 l -34,-14 7,31 c 5,24 4,30 -5,24 -20,-12 -31,17 -12,31 14,11 19,10 29,-3 7,-9 14,-21 16,-27 z M 100,300 c 0,-11 7,-20 16,-20 10,0 13,-6 9,-19 -3,-10 -1,-30 4,-44 7,-17 7,-28 1,-32 -6,-4 -10,0 -10,7 0,7 -4,19 -9,27 -7,11 -15,9 -40,-10 -24,-17 -34,-20 -43,-11 -9,9 -8,18 2,37 7,14 16,21 20,15 4,-6 14,-4 28,6 28,19 19,39 -10,23 -20,-11 -20,-11 -2,15 23,31 34,33 34,6 z m 296,-41 c -27,-4 -59,-17 -72,-30 -26,-24 -32,-41 -11,-34 17,7 46,-15 30,-22 -7,-2 -13,-10 -13,-18 0,-7 -7,-19 -17,-26 -15,-13 -15,-12 -4,8 10,20 9,23 -14,29 -35,9 -31,28 13,69 32,30 43,34 87,34 l 50,-1 z m 2482,-17 c 2,-7 -3,-12 -12,-12 -9,0 -16,7 -16,16 0,17 22,14 28,-4 z M 224,231 c 9,-13 -19,-32 -38,-25 -17,6 -20,16 -9,27 9,10 41,9 47,-2 z M 118,126 c 13,8 23,8 39,-4 28,-18 20,-34 -11,-22 -13,5 -29,4 -37,-1 -10,-6 -5,-9 19,-9 38,0 43,-17 6,-26 -18,-5 -31,-1 -48,15 -12,11 -34,21 -49,21 -30,0 -37,18 -9,26 9,3 24,9 32,14 10,5 19,3 28,-8 10,-13 16,-14 30,-6 z M 211,52 C 206,42 193,27 184,19 168,7 167,7 175,20 c 10,18 37,50 42,50 2,0 -1,-8 -6,-18 z"
       id="path4"
       style="fill:#a38921;fill-opacity:1" />
    <path
       d="m 4428,4866 c -42,-15 -130,-69 -148,-92 -20,-23 -3,-16 49,21 26,19 73,46 102,59 58,27 57,33 -3,12 z"
       id="path5"
       style="fill:#5a4c11;fill-opacity:1" />
    <path
       d="m 3076,4449 c -32,-5 -62,-11 -65,-15 -3,-3 19,-3 49,1 30,5 84,11 120,15 l 65,7 h -55 c -30,0 -82,-3 -114,-8 z"
       id="path6"
       style="fill:#5a4c11;fill-opacity:1" />
    <path
       d="m 4150,4163 c -8,-3 -39,-15 -68,-25 -29,-11 -52,-22 -49,-24 2,-2 39,9 83,26 43,16 72,29 64,29 -8,0 -22,-3 -30,-6 z"
       id="path7"
       style="fill:#5a4c11;fill-opacity:1" />
    <path
       d="m 869,3864 c -12,-14 -11,-16 5,-13 11,2 21,10 24,17 5,17 -13,15 -29,-4 z"
       id="path8"
       style="fill:#5a4c11;fill-opacity:1" />
    <path
       d="m 817,3823 c -4,-3 -7,-13 -7,-21 0,-12 3,-12 15,-2 8,7 15,16 15,21 0,11 -14,12 -23,2 z"
       id="path9"
       style="fill:#5a4c11;fill-opacity:1" />
    <path
       d="m 3182,3729 c -61,-15 -47,-21 18,-9 77,15 225,12 299,-5 71,-17 94,-13 34,6 -49,15 -295,21 -351,8 z"
       id="path10"
       style="fill:#5a4c11;fill-opacity:1" />
    <path
       d="m 1034,3607 c 11,-6 48,-31 84,-54 67,-45 77,-50 67,-33 -10,17 -93,70 -133,86 -23,9 -30,9 -18,1 z"
       id="path11"
       style="fill:#5a4c11;fill-opacity:1" />
    <path
       d="m 2829,3486 c -53,-21 -119,-62 -119,-72 0,-3 21,7 46,22 26,15 74,38 108,50 33,13 52,23 41,23 -11,0 -45,-10 -76,-23 z"
       id="path12"
       style="fill:#5a4c11;fill-opacity:1" />
    <path
       d="m 3405,3460 c -38,-10 -59,-18 -45,-19 26,-1 128,24 138,33 9,10 -19,5 -93,-14 z"
       id="path13"
       style="fill:#5a4c11;fill-opacity:1" />
    <path
       d="m 4131,3211 c -7,-12 -7,-22 -2,-26 5,-3 13,4 16,16 9,28 -1,36 -14,10 z"
       id="path14"
       style="fill:#5a4c11;fill-opacity:1" />
    <path
       d="m 4164,3196 c -4,-10 -2,-22 4,-28 8,-8 13,-7 18,6 4,10 2,22 -4,28 -8,8 -13,7 -18,-6 z"
       id="path15"
       style="fill:#5a4c11;fill-opacity:1" />
    <path
       d="m 3930,2946 c 0,-2 8,-10 18,-17 15,-13 16,-12 3,4 -13,16 -21,21 -21,13 z"
       id="path16"
       style="fill:#5a4c11;fill-opacity:1" />
    <path
       d="m 1868,2963 c 6,-2 18,-2 25,0 6,3 1,5 -13,5 -14,0 -19,-2 -12,-5 z"
       id="path17"
       style="fill:#5a4c11;fill-opacity:1" />
    <path
       d="m 1985,2944 c 44,-8 132,-33 195,-55 149,-52 169,-56 92,-19 -84,41 -218,78 -300,84 l -67,5 z"
       id="path18"
       style="fill:#5a4c11;fill-opacity:1" />
    <path
       d="m 1870,2921 c 14,-5 104,-28 200,-51 228,-54 317,-81 456,-140 113,-47 146,-51 56,-6 -98,49 -305,118 -468,155 -165,38 -297,60 -244,42 z"
       id="path19"
       style="fill:#5a4c11;fill-opacity:1" />
    <path
       d="m 1985,2834 c 28,-9 109,-33 180,-54 72,-21 139,-41 150,-45 12,-4 9,0 -6,9 -31,18 -276,91 -334,99 -37,5 -36,5 10,-9 z"
       id="path20"
       style="fill:#5a4c11;fill-opacity:1" />
    <path
       d="m 1620,2646 c 36,-20 186,-70 330,-110 69,-19 134,-37 145,-41 13,-4 12,-1 -5,8 -14,8 -105,38 -202,66 -97,28 -201,60 -230,71 -61,23 -74,25 -38,6 z"
       id="path21"
       style="fill:#5a4c11;fill-opacity:1" />
    <path
       d="m 1958,2463 c 7,-3 16,-2 19,1 4,3 -2,6 -13,5 -11,0 -14,-3 -6,-6 z"
       id="path22"
       style="fill:#5a4c11;fill-opacity:1" />
    <path
       d="m 2060,2437 c 41,-13 84,-27 95,-31 11,-3 -2,5 -30,18 -27,14 -70,28 -95,31 -37,5 -32,2 30,-18 z"
       id="path23"
       style="fill:#5a4c11;fill-opacity:1" />
    <path
       d="m 3278,2363 c 17,-2 47,-2 65,0 17,2 3,4 -33,4 -36,0 -50,-2 -32,-4 z"
       id="path24"
       style="fill:#5a4c11;fill-opacity:1" />
    <path
       d="m 2478,2213 c 6,-2 18,-2 25,0 6,3 1,5 -13,5 -14,0 -19,-2 -12,-5 z"
       id="path25"
       style="fill:#5a4c11;fill-opacity:1" />
    <path
       d="m 3212,2158 c -30,-5 -51,-12 -48,-15 5,-6 146,16 146,23 0,6 -38,3 -98,-8 z"
       id="path26"
       style="fill:#5a4c11;fill-opacity:1" />
    <path
       d="m 350,1443 c 0,-13 5,-23 10,-23 13,0 13,11 0,30 -8,12 -10,11 -10,-7 z"
       id="path27"
       style="fill:#5a4c11;fill-opacity:1" />
    <path
       d="m 340,401 c 0,-11 5,-23 10,-26 6,-3 10,3 10,14 0,11 -4,23 -10,26 -5,3 -10,-3 -10,-14 z"
       id="path28"
       style="fill:#5a4c11;fill-opacity:1" />
    <path
       d="m 2760,5020 -25,-8 25,-1 c 14,0 32,4 40,9 13,9 13,10 0,9 -8,-1 -26,-5 -40,-9 z"
       id="path29"
       style="fill:#5a4c11;fill-opacity:1" />
    <path
       d="m 1607,4710 c 97,-16 250,-57 309,-84 68,-31 71,-25 4,9 -68,35 -220,74 -305,80 l -70,4 z"
       id="path30"
       style="fill:#5a4c11;fill-opacity:1" />
    <path
       d="m 2168,4673 c 7,-3 16,-2 19,1 4,3 -2,6 -13,5 -11,0 -14,-3 -6,-6 z"
       id="path31"
       style="fill:#5a4c11;fill-opacity:1" />
    <path
       d="m 1185,4665 c 6,-2 98,-5 205,-7 107,-3 173,-1 145,3 -49,7 -370,11 -350,4 z"
       id="path32"
       style="fill:#5a4c11;fill-opacity:1" />
    <path
       d="m 458,3655 c 13,-25 122,-133 122,-120 -1,6 -30,39 -66,75 -36,36 -61,56 -56,45 z"
       id="path33"
       style="fill:#5a4c11;fill-opacity:1" />
    <path
       d="m 100,3612 c 14,-9 49,-41 77,-71 59,-63 68,-58 24,11 -30,47 -74,78 -108,77 -15,0 -13,-3 7,-17 z"
       id="path34"
       style="fill:#5a4c11;fill-opacity:1" />
    <path
       d="m 4965,2748 c -66,-11 -124,-23 -128,-27 -4,-4 43,0 105,10 62,10 125,19 140,19 15,0 30,5 33,10 8,13 -5,12 -150,-12 z"
       id="path35"
       style="fill:#5a4c11;fill-opacity:1" />
    <path
       d="m 4495,2639 c -41,-15 -44,-18 -15,-13 19,4 46,12 60,20 36,19 14,16 -45,-7 z"
       id="path36"
       style="fill:#5a4c11;fill-opacity:1" />
    <path
       d="m 5091,1984 c -14,-7 -38,-10 -53,-7 -23,5 -27,3 -22,-11 3,-9 17,-16 29,-16 17,0 25,-7 27,-22 3,-24 17,-32 36,-19 8,5 12,23 10,47 -3,39 -4,39 -27,28 z"
       id="path37"
       style="fill:#5a4c11;fill-opacity:1" />
    <path
       d="m 2551,1724 c 0,-11 3,-14 6,-6 3,7 2,16 -1,19 -3,4 -6,-2 -5,-13 z"
       id="path38"
       style="fill:#5a4c11;fill-opacity:1" />
    <path
       d="m 4949,1715 c -137,-27 -240,-55 -253,-66 -17,-15 23,-10 227,28 133,25 197,42 197,50 0,18 -35,15 -171,-12 z"
       id="path39"
       style="fill:#5a4c11;fill-opacity:1" />
    <path
       d="m 3088,1518 c 33,-6 119,-6 235,0 l 182,9 h -235 c -179,1 -223,-2 -182,-9 z"
       id="path40"
       style="fill:#5a4c11;fill-opacity:1" />
    <path
       d="m 1620,1509 c -14,-4 60,-7 164,-8 104,-1 187,1 185,3 -9,7 -325,13 -349,5 z"
       id="path41"
       style="fill:#5a4c11;fill-opacity:1" />
    <path
       d="m 2600,1500 c -14,-5 63,-6 175,-3 110,3 202,7 204,9 9,8 -355,2 -379,-6 z"
       id="path42"
       style="fill:#5a4c11;fill-opacity:1" />
    <path
       d="m 2337,1493 c 18,-2 50,-2 70,0 21,2 7,4 -32,4 -38,0 -55,-2 -38,-4 z"
       id="path43"
       style="fill:#5a4c11;fill-opacity:1" />
    <path
       d="m 3904,1225 c -4,-10 -13,-13 -26,-9 -10,3 -25,0 -33,-6 -18,-15 -20,-67 -2,-73 6,-2 9,-8 5,-12 -3,-4 -23,-1 -42,6 -31,11 -38,11 -51,-2 -13,-13 -13,-17 1,-37 15,-22 17,-22 35,-6 15,14 21,14 34,4 22,-19 0,-40 -39,-37 -28,2 -31,-1 -34,-30 -2,-23 2,-34 17,-42 16,-9 22,-8 30,6 9,16 11,16 28,2 38,-34 43,-32 28,12 -22,61 -17,72 6,14 34,-88 34,-88 9,-75 -33,18 -70,5 -70,-25 0,-32 35,-68 59,-60 14,4 19,-4 27,-44 12,-56 15,-56 -64,-3 -43,29 -52,40 -48,57 3,12 -1,31 -10,43 -12,17 -19,20 -34,12 -28,-15 -48,14 -26,38 23,26 20,41 -10,54 -34,16 -50,-6 -28,-40 8,-13 13,-29 11,-35 -2,-7 -14,5 -27,26 -12,20 -25,37 -30,37 -15,0 -30,-28 -24,-44 4,-11 1,-16 -10,-16 -24,0 -20,-35 6,-52 20,-14 21,-17 9,-32 -13,-15 -13,-19 0,-27 8,-5 20,-9 27,-9 6,0 12,-5 12,-11 0,-7 9,-9 23,-6 12,3 42,9 67,12 43,6 48,4 88,-32 27,-24 44,-47 45,-63 0,-14 6,-29 12,-33 6,-5 4,-7 -5,-4 -8,2 -15,10 -15,18 0,8 -7,23 -15,34 -19,26 -79,75 -91,75 -19,0 -8,-20 19,-34 15,-8 35,-29 45,-48 19,-33 19,-33 -1,-9 -19,23 -20,23 -30,5 -11,-19 -11,-19 -26,1 -14,19 -15,19 -21,-8 l -7,-28 -12,23 c -16,32 -46,36 -46,6 0,-13 -5,-29 -10,-34 -20,-20 1,-41 62,-60 65,-20 85,-40 46,-46 -18,-2 -24,-10 -26,-36 -3,-31 -5,-33 -33,-27 -24,6 -31,3 -40,-19 l -12,-26 -26,29 c -22,25 -28,27 -39,14 -18,-19 -8,-43 18,-43 29,0 25,-17 -10,-35 -20,-10 -41,-37 -62,-78 -29,-57 -31,-70 -31,-157 v -95 l -6,81 c -4,50 -12,90 -23,107 -10,14 -18,30 -18,34 0,4 5,0 11,-9 15,-27 25,-22 47,25 32,68 36,88 16,80 -13,-5 -15,-2 -9,18 4,15 3,19 -3,11 -7,-10 -11,-10 -21,2 -17,21 -10,48 16,61 11,6 28,17 37,24 9,7 22,11 30,8 24,-9 31,58 9,88 -25,35 -52,32 -66,-7 l -11,-33 -6,29 c -7,38 -27,45 -36,12 -4,-16 -11,-23 -20,-19 -21,8 -17,30 6,36 24,6 26,23 4,31 -21,8 -54,-20 -54,-46 0,-16 -3,-17 -20,-8 -18,10 -20,8 -20,-30 0,-33 3,-40 19,-40 10,0 21,-7 25,-15 9,-26 -25,-17 -51,13 -17,20 -25,24 -31,14 -10,-15 -51,-11 -61,7 -5,7 -12,12 -17,11 -5,-1 -11,9 -14,21 -7,28 -23,34 -40,14 -10,-12 -10,-21 -1,-41 13,-30 14,-37 2,-29 -5,3 -13,0 -16,-6 -5,-6 -21,-8 -41,-4 -27,5 -34,3 -34,-10 0,-8 -7,-15 -15,-15 -19,0 -19,-9 1,-31 22,-24 11,-37 -26,-31 -30,4 -31,3 -28,-24 2,-21 12,-33 35,-44 18,-8 33,-19 33,-23 0,-16 -32,-19 -49,-3 -26,24 -51,20 -51,-7 0,-30 33,-61 57,-53 10,3 29,-3 43,-14 21,-16 22,-21 10,-29 -16,-11 -7,-33 35,-86 19,-23 27,-27 37,-17 14,14 38,16 38,3 0,-5 -9,-11 -21,-14 -27,-7 -15,-27 16,-27 29,0 43,19 24,32 -8,5 -9,8 -4,6 75,-30 76,-31 106,-94 l 30,-64 h 58 58 l -8,45 c -5,25 -24,79 -44,121 -19,42 -35,84 -34,93 0,9 4,5 9,-9 4,-14 29,-65 54,-115 32,-61 45,-97 41,-112 -5,-23 -5,-23 110,-23 96,0 115,3 115,15 0,8 5,15 10,15 6,0 10,-7 10,-15 0,-12 16,-15 85,-15 h 85 v 28 c 0,37 15,60 24,37 3,-9 6,-28 6,-41 V 0 h 193 l 192,1 -30,24 c -16,14 -42,25 -56,25 -15,0 -46,7 -70,16 -30,10 -60,13 -94,9 -35,-4 -46,-2 -35,5 22,14 87,12 144,-5 27,-8 55,-15 63,-15 26,0 -19,61 -67,91 -36,23 -56,29 -104,29 -67,0 -69,7 -5,18 l 44,8 -50,18 c -27,10 -56,20 -64,22 -8,3 -11,7 -8,10 11,12 102,-27 169,-72 37,-25 81,-64 97,-87 16,-23 42,-55 58,-70 29,-27 33,-28 127,-25 l 98,3 -65,53 c -53,43 -76,55 -120,62 -97,15 -129,51 -103,113 8,21 20,37 27,37 8,0 7,-6 -3,-17 -48,-55 -18,-105 70,-117 29,-4 59,-9 68,-13 14,-5 15,-3 5,15 -6,11 -11,24 -11,29 1,4 8,-5 17,-22 8,-16 25,-41 37,-53 22,-25 106,-85 111,-80 2,2 -7,23 -21,48 -72,134 -74,139 -67,233 5,75 9,87 24,87 10,0 21,-5 24,-10 4,-6 17,-3 35,10 15,11 31,20 34,20 15,0 3,-32 -23,-62 -27,-32 -28,-34 -14,-73 21,-60 31,-122 22,-137 -6,-8 -9,-2 -9,20 0,45 -50,192 -65,192 -8,0 -15,-21 -18,-58 -5,-50 -2,-64 25,-117 17,-33 42,-84 57,-112 14,-29 29,-53 34,-53 4,0 7,19 7,42 0,47 93,429 98,404 2,-8 -13,-80 -33,-158 -20,-79 -39,-176 -42,-215 l -6,-73 h 30 c 26,0 32,5 43,41 8,23 16,37 18,30 2,-6 -1,-25 -7,-41 -9,-28 -8,-30 14,-30 23,0 24,4 28,73 l 3,72 2,-72 c 1,-40 6,-73 11,-73 5,0 16,19 26,43 23,57 59,102 107,135 23,15 53,35 67,44 42,28 52,31 64,19 9,-9 9,-16 -1,-29 -33,-46 -46,-108 -22,-106 10,1 15,-8 16,-25 0,-14 2,-32 5,-40 3,-10 -9,-19 -36,-27 l -40,-12 68,-1 67,-1 v 77 76 l -27,-24 -28,-24 28,31 c 23,25 27,39 27,87 v 57 l -26,-10 c -31,-12 -47,-13 -40,-2 2,4 1,14 -3,21 -7,10 -14,10 -38,-3 -17,-8 -34,-12 -37,-8 -4,3 -4,-1 0,-11 5,-14 0,-17 -29,-17 -26,0 -36,-5 -40,-20 -6,-25 -27,-26 -34,-2 -2,10 -18,23 -34,29 -16,6 -29,16 -29,21 0,11 54,9 81,-3 10,-3 20,-2 24,4 3,6 15,11 26,11 10,0 19,6 19,13 0,8 12,19 26,26 17,7 24,17 20,26 -4,11 2,15 19,15 14,0 25,5 25,10 0,6 6,10 14,10 7,0 23,-21 34,-47 l 20,-48 1,139 c 1,120 -1,137 -14,132 -9,-3 -18,1 -22,10 -4,10 -13,14 -28,10 -12,-3 -25,-2 -29,2 -4,4 -18,7 -29,7 -17,0 -23,7 -25,28 -2,19 1,27 12,27 9,0 13,6 10,13 -3,8 2,20 11,27 8,7 18,30 21,51 8,46 34,52 71,17 l 23,-21 v 96 c 0,82 -2,95 -15,91 -18,-7 -19,-26 -3,-42 9,-9 8,-12 -4,-12 -9,0 -19,-10 -24,-22 -6,-19 -8,-14 -11,25 -2,26 -8,47 -13,47 -14,0 -31,-38 -32,-71 -1,-23 -4,-27 -15,-18 -10,9 -17,8 -29,-2 -14,-12 -19,-10 -38,14 -30,37 -39,34 -31,-13 6,-35 5,-39 -10,-34 -23,9 -36,-15 -23,-39 7,-14 7,-22 -3,-28 -10,-6 -9,-12 5,-28 17,-19 17,-21 3,-21 -18,0 -23,-25 -7,-35 17,-10 11,-25 -9,-25 -16,0 -18,-5 -11,-34 9,-42 5,-48 -26,-35 -24,9 -25,8 -18,-26 7,-39 -4,-45 -29,-17 -14,15 -15,23 -5,50 8,20 19,32 30,32 21,0 23,11 6,28 -18,18 -46,15 -84,-8 l -33,-21 -12,23 c -11,20 -10,21 3,10 19,-16 38,3 42,44 2,16 8,30 15,32 6,2 11,10 11,17 0,8 8,19 19,24 28,15 47,67 31,86 -12,14 -16,13 -37,-6 -26,-26 -30,-14 -11,38 9,25 9,36 0,45 -9,9 -20,2 -48,-30 -35,-42 -65,-50 -41,-11 10,16 9,21 -1,28 -30,19 34,71 88,71 16,0 31,6 33,13 3,6 6,2 6,-10 1,-12 6,-25 11,-28 6,-3 10,-15 10,-25 0,-24 15,-33 40,-25 16,5 19,14 17,62 -3,60 -13,71 -47,53 -11,-6 -30,-8 -41,-5 -19,6 -19,7 1,32 25,32 11,67 -23,61 -19,-4 -22,0 -22,25 0,36 -30,60 -45,37 -5,-8 -10,-25 -10,-37 0,-13 -4,-23 -10,-23 -5,0 -10,7 -10,15 0,24 -23,65 -36,65 -13,0 -20,-19 -26,-70 -3,-23 -5,-22 -23,15 -25,49 -61,57 -58,12 2,-24 -1,-26 -23,-21 -26,7 -31,-5 -14,-37 9,-15 7,-19 -5,-19 -27,0 -11,-24 22,-32 26,-7 30,-12 25,-30 -4,-17 -2,-20 13,-14 12,4 26,-1 40,-14 15,-14 25,-18 30,-11 9,16 25,3 25,-19 0,-16 -6,-19 -27,-16 -16,2 -37,7 -47,11 -20,9 -20,12 1,-65 6,-22 5,-24 -10,-12 -9,8 -19,24 -23,35 -11,37 -24,48 -45,36 -28,-14 -23,-46 12,-87 l 31,-35 -28,-12 -29,-11 31,-15 c 21,-11 35,-12 45,-6 38,24 90,-16 110,-85 7,-25 6,-28 -6,-18 -8,7 -15,18 -15,25 0,7 -7,18 -15,25 -13,11 -15,9 -13,-16 1,-16 -1,-35 -6,-42 -10,-17 -51,-15 -66,3 -11,13 -8,15 14,15 14,0 26,4 26,9 0,13 -35,20 -51,10 -16,-10 -49,7 -49,25 0,7 -13,16 -30,20 -32,6 -43,36 -13,36 13,0 14,3 5,12 -17,17 -15,28 7,28 15,0 19,6 18,27 -1,15 -9,34 -17,43 -8,9 -20,25 -27,36 -12,18 -13,18 -32,-3 l -19,-22 -12,29 c -14,33 -37,45 -56,29 -18,-15 -18,-38 1,-45 22,-9 18,-24 -5,-24 -13,0 -19,-6 -18,-17 3,-42 -3,-61 -22,-66 -16,-4 -19,-11 -15,-30 4,-14 2,-28 -4,-31 -6,-4 -11,-2 -11,4 0,8 -10,9 -30,5 -32,-7 -39,5 -15,25 13,10 9,15 -22,31 -20,10 -40,16 -44,13 -5,-3 -9,2 -9,10 0,27 -30,17 -48,-15 -9,-17 -25,-41 -34,-53 -17,-20 -17,-20 -3,16 8,21 15,51 15,67 0,31 0,32 98,46 44,7 50,13 30,33 -10,10 -8,14 9,18 36,10 42,54 7,54 -8,0 -23,-5 -34,-12 -15,-10 -24,-9 -44,2 -14,7 -27,11 -28,9 -19,-30 -28,-51 -28,-62 0,-7 -22,-35 -50,-62 l -50,-49 v 36 c 0,40 43,103 65,94 12,-4 35,12 35,25 0,4 -9,9 -20,12 -11,3 -20,13 -20,22 0,25 -23,12 -31,-17 -4,-14 -16,-35 -27,-46 -31,-31 -36,-82 -18,-163 9,-39 13,-76 9,-82 -10,-16 -22,35 -29,126 -7,84 8,157 33,157 7,0 13,6 13,14 0,8 11,27 23,43 24,28 47,83 47,110 0,22 -29,27 -50,8 -20,-18 -20,-17 -20,23 0,22 -3,47 -6,56 -8,20 -33,21 -40,1 z m 12,-65 c 8,0 14,-7 14,-15 0,-8 -4,-15 -9,-15 -5,0 -11,-12 -13,-27 l -3,-28 -23,35 c -12,19 -22,46 -21,60 0,23 1,23 8,5 8,-19 9,-19 17,5 8,25 8,25 12,3 2,-13 10,-23 18,-23 z m 177,-247 c -8,-23 -23,-33 -48,-32 -17,0 -16,3 10,24 35,29 47,32 38,8 z m -87,-115 c -8,-49 -32,-92 -46,-83 -19,12 -11,78 12,102 32,34 41,29 34,-19 z m 721,20 c -3,-8 -6,-5 -6,6 -1,11 2,17 5,13 3,-3 4,-12 1,-19 z m -637,-68 c 0,-5 -9,-10 -19,-10 -11,0 -23,5 -26,10 -4,6 5,10 19,10 14,0 26,-4 26,-10 z m 0,-69 c 0,-27 -12,-33 -32,-15 -25,23 -50,2 -41,-34 5,-20 3,-24 -10,-19 -11,4 -22,-4 -35,-25 l -20,-31 -4,42 c -2,26 1,46 9,53 7,6 11,14 8,18 -3,5 0,12 6,16 7,4 10,3 7,-2 -3,-5 -2,-18 3,-29 7,-20 8,-20 8,1 1,11 10,30 21,42 17,18 24,20 50,11 18,-7 30,-18 30,-28 z m -179,-8 c 13,-16 12,-17 -3,-4 -10,7 -18,15 -18,17 0,8 8,3 21,-13 z m -47,-9 c 10,-4 16,-18 16,-36 0,-28 -2,-29 -33,-24 -49,8 -67,16 -67,32 0,20 10,17 38,-8 17,-16 23,-19 22,-8 -3,21 -1,50 4,50 2,0 11,-3 20,-6 z m 370,-17 c 13,-13 25,-30 28,-38 4,-12 7,-12 22,0 14,12 19,11 36,-4 17,-15 22,-16 36,-4 14,11 18,10 31,-6 7,-11 23,-19 33,-17 17,3 20,-3 20,-31 0,-31 -3,-35 -31,-39 -24,-4 -32,0 -39,16 -8,20 -8,20 -18,-5 -6,-15 -17,-29 -24,-32 -21,-7 -48,12 -48,33 0,24 -13,26 -30,5 -18,-21 -54,-19 -81,6 -24,20 -24,20 -1,9 15,-7 22,-8 22,0 0,6 -7,13 -15,16 -21,9 -19,24 4,24 26,0 34,26 16,54 -26,40 3,49 39,13 z m -314,-38 c 0,-24 -4,-38 -10,-34 -5,3 -10,22 -10,41 0,19 5,34 10,34 6,0 10,-18 10,-41 z m -52,-41 c 16,-16 15,-28 -3,-28 -22,0 -18,-21 5,-27 12,-3 29,-22 40,-42 l 19,-36 1,55 c 0,41 3,51 10,40 12,-17 3,-166 -11,-190 -7,-12 -8,-11 -9,6 0,38 -42,154 -54,154 -7,0 -25,11 -40,25 -23,21 -26,28 -16,40 15,18 42,19 58,3 z m 701,-15 c 9,-17 11,-17 25,2 14,20 15,20 24,-5 5,-14 19,-33 31,-44 22,-20 21,-21 37,39 8,29 9,29 12,-13 2,-24 -2,-50 -8,-57 -6,-8 -15,-26 -19,-41 -7,-26 -7,-26 -26,-8 -13,13 -20,15 -23,6 -5,-16 -32,-16 -32,1 -1,7 -6,5 -14,-6 -12,-15 -15,-15 -26,-2 -17,21 -44,20 -36,-1 5,-12 -3,-10 -26,8 -35,27 -46,54 -30,70 6,6 16,6 29,0 15,-9 23,-7 37,10 10,11 15,26 12,33 -10,27 18,34 33,8 z M 3311,499 c 6,-11 9,-22 7,-23 -11,-8 -78,-36 -86,-36 -13,0 -32,54 -23,68 4,6 18,15 31,20 29,11 55,1 71,-29 z m 150,-20 c 15,-7 18,-16 13,-32 -4,-12 -7,-34 -6,-49 1,-24 -2,-27 -22,-22 -26,6 -35,-14 -36,-71 0,-21 -3,-26 -9,-16 -5,8 -5,27 0,45 5,17 7,48 3,70 -4,24 -1,47 7,62 14,27 21,29 50,13 z m 930,-123 c 15,-21 17,-26 5,-17 -15,13 -19,13 -27,0 -14,-22 -6,-33 37,-47 21,-7 46,-20 54,-27 12,-13 10,-15 -19,-15 -35,0 -35,0 -17,-55 4,-11 -2,-3 -13,17 -21,37 -51,44 -51,12 0,-8 -4,-14 -10,-14 -5,0 -7,6 -4,14 3,8 -4,28 -16,44 -20,27 -27,30 -88,31 -36,1 -67,3 -70,5 -2,2 9,10 24,18 15,7 30,20 32,28 4,12 2,13 -9,3 -8,-6 -25,-13 -39,-15 -33,-4 -41,-51 -11,-67 11,-6 30,-26 42,-43 l 22,-33 -29,28 c -17,15 -34,27 -40,27 -18,0 -65,52 -60,66 3,7 1,16 -4,19 -6,4 -10,2 -10,-3 0,-17 -41,-52 -62,-52 -15,0 -19,5 -15,19 3,12 -1,22 -9,25 -22,8 -17,26 7,26 17,0 19,3 10,14 -16,19 2,30 48,32 20,0 37,8 43,17 11,21 34,22 46,2 5,-10 15,-13 25,-9 21,8 22,18 2,34 -24,20 -18,26 31,28 54,2 84,-11 84,-38 0,-25 -23,-17 -39,13 -6,12 -9,14 -7,5 4,-13 0,-18 -14,-18 -30,0 -24,-22 13,-51 49,-39 57,-42 72,-29 8,7 22,9 31,6 13,-5 15,-2 9,16 -4,13 -9,46 -11,73 l -3,50 9,-54 c 4,-29 18,-68 31,-85 z m -1194,97 c -8,-7 -37,9 -31,19 3,5 12,4 20,-3 8,-6 13,-14 11,-16 z m 173,-22 c 0,-10 -11,-23 -24,-29 -21,-9 -27,-8 -40,13 -15,22 -14,24 12,33 34,11 52,5 52,-17 z m 305,-1 c 3,-5 2,-10 -4,-10 -5,0 -13,5 -16,10 -3,6 -2,10 4,10 5,0 13,-4 16,-10 z m 824,-28 c 16,-11 0,-46 -33,-73 -26,-22 -36,-8 -29,40 9,67 9,68 62,33 z M 3293,390 c 19,0 23,-20 5,-38 -8,-8 -18,-7 -40,6 -34,20 -38,47 -5,38 12,-3 30,-6 40,-6 z m 481,-18 c -6,-27 -4,-29 25,-24 17,2 34,8 37,13 9,16 20,10 33,-17 10,-23 10,-25 -9,-19 -14,4 -20,2 -20,-8 0,-15 -63,-33 -80,-22 -12,8 -25,-18 -44,-90 -17,-66 -10,-84 25,-64 13,7 28,12 32,11 5,-1 6,2 2,8 -3,5 2,13 12,17 10,4 23,13 29,22 6,8 18,12 28,8 10,-4 19,-1 22,8 11,27 50,17 75,-20 15,-21 34,-35 49,-37 29,-3 33,-26 8,-41 -21,-14 -69,9 -76,36 -2,9 -8,17 -13,17 -13,0 -11,-24 3,-38 8,-8 8,-12 1,-12 -6,0 -14,7 -17,16 -6,15 -8,15 -25,0 -12,-11 -21,-14 -26,-7 -4,7 -14,5 -31,-5 -19,-13 -27,-14 -38,-5 -11,9 -19,9 -35,-1 -17,-11 -23,-10 -37,3 -15,15 -14,23 5,93 25,92 26,103 7,87 -11,-9 -15,-9 -18,0 -6,17 -26,3 -50,-35 -15,-24 -18,-26 -13,-8 7,25 -26,72 -52,72 -16,0 -17,12 -1,28 18,18 43,15 63,-8 24,-27 33,-25 80,15 49,42 56,43 49,7 z m -559,-2 c 6,-10 -33,-90 -45,-90 -3,0 -16,7 -28,16 -24,17 -30,44 -9,44 8,0 22,9 32,20 20,22 40,26 50,10 z m 150,-36 c 9,-15 12,-23 6,-20 -7,5 -11,-1 -11,-15 0,-12 -2,-20 -4,-18 -4,6 -16,79 -12,79 2,0 11,-12 21,-26 z m 238,-64 c -3,-12 -8,-19 -11,-16 -5,6 5,36 12,36 2,0 2,-9 -1,-20 z m 1182,-7 c -9,-16 -27,-62 -40,-103 -14,-41 -22,-59 -19,-40 9,48 33,121 50,148 21,32 28,27 9,-5 z m -1550,7 c 5,8 12,7 24,-4 14,-13 20,-13 30,-3 11,10 13,6 8,-20 -4,-18 -2,-35 3,-38 6,-3 10,-1 10,4 0,19 19,12 52,-19 31,-27 31,-29 11,-30 -12,0 -27,-8 -32,-18 -6,-9 -11,-12 -11,-5 0,24 -52,68 -81,69 -16,1 -29,-3 -29,-9 0,-7 -6,-5 -14,3 -19,20 -10,86 9,70 10,-8 15,-8 20,0 z m 345,-120 c -10,-14 -23,-43 -31,-65 -8,-24 -14,-33 -17,-23 -2,9 8,41 22,71 14,30 27,65 27,78 1,21 2,20 8,-6 5,-21 2,-38 -9,-55 z m 40,60 c -6,-11 -13,-20 -16,-20 -2,0 0,9 6,20 6,11 13,20 16,20 2,0 0,-9 -6,-20 z"
       id="path44"
       style="fill:#5a4c11;fill-opacity:1" />
    <path
       d="m 1,1206 c 7,-7 302,-76 306,-72 7,6 -83,33 -184,56 -88,19 -131,25 -122,16 z"
       id="path45"
       style="fill:#5a4c11;fill-opacity:1" />
    <path
       d="m 5100,1160 c 0,-11 5,-20 10,-20 6,0 10,9 10,20 0,11 -4,20 -10,20 -5,0 -10,-9 -10,-20 z"
       id="path46"
       style="fill:#5a4c11;fill-opacity:1" />
    <path
       d="m 140,1083 c 36,-8 157,-37 269,-64 202,-49 273,-59 149,-21 -151,47 -417,104 -468,101 -8,-1 14,-8 50,-16 z"
       id="path47"
       style="fill:#5a4c11;fill-opacity:1" />
    <path
       d="m 4022,1029 c 0,-49 1,-50 20,-32 29,26 65,28 73,3 5,-16 10,-18 26,-9 30,15 22,54 -11,53 -14,-1 -30,6 -36,14 -6,8 -25,16 -41,18 -31,4 -31,3 -31,-47 z"
       id="path48"
       style="fill:#5a4c11;fill-opacity:1" />
    <path
       d="m 5095,1040 c 3,-5 10,-10 16,-10 5,0 9,5 9,10 0,6 -7,10 -16,10 -8,0 -12,-4 -9,-10 z"
       id="path49"
       style="fill:#5a4c11;fill-opacity:1" />
    <path
       d="m 5100,965 c 0,-8 5,-15 10,-15 6,0 10,7 10,15 0,8 -4,15 -10,15 -5,0 -10,-7 -10,-15 z"
       id="path50"
       style="fill:#5a4c11;fill-opacity:1" />
    <path
       d="m 4962,904 c -14,-17 -19,-31 -14,-40 8,-13 10,-13 21,0 7,8 19,12 28,9 11,-4 14,1 11,22 -4,38 -18,40 -46,9 z"
       id="path51"
       style="fill:#5a4c11;fill-opacity:1" />
    <path
       d="m 5070,691 c 0,-11 -4,-23 -10,-26 -15,-10 -12,-35 5,-35 8,0 15,-4 15,-10 0,-5 9,-10 20,-10 16,0 20,7 20,30 0,22 -4,28 -15,24 -10,-4 -15,0 -15,14 0,12 -4,24 -10,27 -5,3 -10,-3 -10,-14 z"
       id="path52"
       style="fill:#5a4c11;fill-opacity:1" />
    <path
       d="m 3288,673 c -28,-14 -38,-33 -18,-33 6,0 10,-9 10,-21 0,-30 24,-18 28,14 3,26 4,26 28,11 23,-15 24,-15 24,4 0,17 -29,45 -42,41 -2,-1 -15,-8 -30,-16 z"
       id="path53"
       style="fill:#5a4c11;fill-opacity:1" />
    <path
       d="m 4810,660 c 12,-16 23,-30 26,-30 2,0 -2,14 -11,30 -9,17 -20,30 -26,30 -6,0 -1,-13 11,-30 z"
       id="path54"
       style="fill:#5a4c11;fill-opacity:1" />
    <path
       d="m 820,660 c 80,-16 117,-21 94,-11 -11,5 -47,12 -80,15 -55,5 -56,5 -14,-4 z"
       id="path55"
       style="fill:#5a4c11;fill-opacity:1" />
    <path
       d="m 4934,161 c -18,-11 -43,-35 -58,-53 -25,-33 -61,-108 -52,-108 3,0 25,26 49,58 27,33 64,67 91,82 25,13 46,28 46,32 0,15 -45,8 -76,-11 z"
       id="path56"
       style="fill:#5a4c11;fill-opacity:1" />
    <path
       d="M 480,117 C 490,107 712,9 716,13 c 2,2 -40,24 -93,49 -95,44 -153,66 -143,55 z"
       id="path57"
       style="fill:#5a4c11;fill-opacity:1" />
    <path
       d="m 4898,69 c -26,-28 -48,-55 -48,-60 0,-20 82,-8 126,17 51,30 58,49 14,39 -33,-7 -41,8 -12,24 15,9 15,12 2,21 -24,16 -32,12 -82,-41 z"
       id="path58"
       style="fill:#5a4c11;fill-opacity:1" />
    <path
       d="M 329,48 C 315,21 321,17 358,33 l 30,12 -24,12 c -21,10 -26,8 -35,-9 z"
       id="path59"
       style="fill:#5a4c11;fill-opacity:1" />
    <path
       d="m 2555,49 c 44,-4 107,-17 139,-28 60,-21 85,-22 48,-2 -41,22 -138,41 -202,40 l -65,-2 z"
       id="path60"
       style="fill:#5a4c11;fill-opacity:1" />
  </g>
  <rect
     style="fill:none;stroke:none;stroke-width:0.240482"
     id="rect60"
     width="224.75952"
     height="56.909111"
     x="0.12023926"
     y="72.579002"
     inkscape:export-filename="banner.jpg"
     inkscape:export-xdpi="800"
     inkscape:export-ydpi="800" />
</svg>
